<svg width="581" height="60" viewBox="0 0 581 60" fill="none" xmlns="http://www.w3.org/2000/svg">
<path d="M0.896 41.328V16.992C0.896 8.544 5.12 4.32 13.568 4.32H32.216L37.832 8.64V15.624H14.216C13.688 15.624 13.424 15.888 13.424 16.416V41.904C13.424 42.432 13.688 42.696 14.216 42.696H37.832V49.68L32.216 54H13.568C5.12 54 0.896 49.776 0.896 41.328ZM46.3179 41.328V16.992C46.3179 8.544 50.5419 4.32 58.9899 4.32H75.1179C83.5659 4.32 87.7899 8.544 87.7899 16.992V41.328C87.7899 49.776 83.5659 54 75.1179 54H58.9899C50.5419 54 46.3179 49.776 46.3179 41.328ZM58.8459 41.904C58.8459 42.432 59.1099 42.696 59.6379 42.696H74.4699C74.9979 42.696 75.2619 42.432 75.2619 41.904V16.416C75.2619 15.888 74.9979 15.624 74.4699 15.624H59.6379C59.1099 15.624 58.8459 15.888 58.8459 16.416V41.904ZM98.2957 54V4.32H116.872C131.176 4.32 138.328 11.472 138.328 25.776V32.544C138.328 46.848 131.176 54 116.872 54H98.2957ZM110.824 42.696H117.592C123.064 42.696 125.8 39.936 125.8 34.416V23.904C125.8 18.384 123.064 15.624 117.592 15.624H110.824V42.696ZM148.147 54V4.32H182.923V15.624H160.675V23.04H180.763V34.344H160.675V42.696H182.923V54H148.147Z" fill="#F44336"/>
<path d="M213.416 57.904C211.709 57.4773 210.323 56.5813 209.256 55.216C208.232 53.8933 207.4 52.2933 206.76 50.416C206.717 49.8613 206.696 49.0933 206.696 48.112C206.739 47.1307 206.803 46.2133 206.888 45.36C206.973 44.5067 207.059 44.016 207.144 43.888C207.272 43.8027 207.336 43.5467 207.336 43.12C207.293 42.9493 207.315 42.672 207.4 42.288C207.528 41.8613 207.656 41.4347 207.784 41.008C207.997 40.496 208.104 40.0907 208.104 39.792C208.104 39.4507 208.083 39.1947 208.04 39.024C208.04 39.024 208.104 38.896 208.232 38.64C208.36 38.3413 208.509 38.1067 208.68 37.936C208.936 37.68 209.043 37.424 209 37.168C209 36.912 209 36.784 209 36.784C208.957 36.6133 209 36.3787 209.128 36.08C209.256 35.7813 209.384 35.5467 209.512 35.376C209.597 35.2907 209.704 35.12 209.832 34.864C210.003 34.5653 210.088 34.416 210.088 34.416C210.088 34.288 210.173 33.9467 210.344 33.392C210.557 32.8373 210.792 32.24 211.048 31.6C211.304 30.9173 211.539 30.2987 211.752 29.744C212.008 29.1893 212.2 28.8267 212.328 28.656V28.528C212.499 28.1013 212.733 27.6533 213.032 27.184C213.075 26.9707 213.181 26.6293 213.352 26.16C213.523 25.648 213.715 25.1573 213.928 24.688C214.397 23.664 214.973 22.512 215.656 21.232C216.381 19.9093 217.149 18.608 217.96 17.328C218.771 16.0053 219.539 14.832 220.264 13.808C221.032 12.7413 221.693 11.952 222.248 11.44C222.973 10.6293 223.699 10.0533 224.424 9.712C225.192 9.328 225.896 9.456 226.536 10.096C226.835 10.3947 227.091 10.8427 227.304 11.44C227.517 11.9947 227.603 12.528 227.56 13.04C227.56 13.5093 227.389 13.7653 227.048 13.808C226.749 13.9787 226.344 14.4693 225.832 15.28C225.32 16.048 224.744 16.9653 224.104 18.032C223.507 19.0987 222.909 20.208 222.312 21.36C221.715 22.4693 221.16 23.472 220.648 24.368C220.093 25.6053 219.581 26.6933 219.112 27.632C218.643 28.528 218.408 28.976 218.408 28.976C218.365 29.104 218.323 29.2107 218.28 29.296C218.237 29.3813 218.195 29.4667 218.152 29.552C217.512 30.8747 216.979 32.0907 216.552 33.2C216.125 34.2667 215.699 35.3973 215.272 36.592C215.016 36.8907 214.867 37.1893 214.824 37.488C214.781 37.7867 214.76 37.936 214.76 37.936C214.675 37.8933 214.611 38 214.568 38.256C214.525 38.4693 214.44 38.7253 214.312 39.024C214.099 39.1947 213.971 39.472 213.928 39.856C213.885 40.1973 213.864 40.5387 213.864 40.88C213.565 41.648 213.288 42.5867 213.032 43.696C212.776 44.7627 212.584 45.808 212.456 46.832C212.371 47.8133 212.349 48.5813 212.392 49.136C212.477 49.8613 212.669 50.48 212.968 50.992C213.309 51.4613 213.779 51.8453 214.376 52.144C214.845 52.3573 215.272 52.5493 215.656 52.72C216.04 52.848 216.381 52.912 216.68 52.912C217.021 52.9547 217.448 52.9547 217.96 52.912C218.515 52.8267 219.261 52.6987 220.2 52.528H220.136C220.691 52.4427 221.267 52.336 221.864 52.208C222.504 52.0373 223.101 51.888 223.656 51.76C224.168 51.6747 224.659 51.5893 225.128 51.504C225.597 51.376 225.96 51.2693 226.216 51.184C227.155 50.928 227.901 50.7147 228.456 50.544C229.053 50.3733 229.459 50.3733 229.672 50.544C229.885 50.7147 230.12 51.0347 230.376 51.504C230.632 51.9733 230.696 52.4 230.568 52.784C230.483 52.9973 230.056 53.424 229.288 54.064C228.52 54.7467 227.645 55.408 226.664 56.048C225.683 56.7307 224.787 57.2 223.976 57.456C223.123 57.84 221.971 58.096 220.52 58.224C219.112 58.3947 217.747 58.4373 216.424 58.352C215.101 58.2667 214.099 58.1173 213.416 57.904ZM235.467 52.912C235.126 52.5707 234.87 52.0587 234.699 51.376C234.571 50.6933 234.528 50.032 234.571 49.392C234.614 48.7093 234.72 48.1973 234.891 47.856C234.891 47.5147 234.934 47.2587 235.019 47.088C235.147 46.8747 235.19 46.6827 235.147 46.512C235.104 46.3413 235.147 46.0427 235.275 45.616C235.403 45.1893 235.531 44.784 235.659 44.4C235.958 43.7173 236.299 42.8427 236.683 41.776C237.067 40.6667 237.451 39.5573 237.835 38.448C238.219 37.296 238.539 36.3147 238.795 35.504C239.051 34.6507 239.2 34.1387 239.243 33.968C239.243 33.456 239.584 33.1787 240.267 33.136C240.779 32.9653 241.398 33.1787 242.123 33.776C242.848 34.3733 243.424 35.0133 243.851 35.696C244.192 36.0373 244.32 36.4853 244.235 37.04C244.15 37.5947 243.872 38.384 243.403 39.408C243.232 39.7493 243.019 40.3253 242.763 41.136C242.55 41.904 242.4 42.544 242.315 43.056C242.144 43.3973 241.931 43.888 241.675 44.528C241.462 45.1253 241.27 45.7013 241.099 46.256C241.014 46.4693 240.928 46.8747 240.843 47.472C240.758 48.0267 240.651 48.6027 240.523 49.2C240.395 49.7973 240.224 50.2667 240.011 50.608C239.627 52.3573 238.944 53.3813 237.963 53.68C237.024 53.9787 236.192 53.7227 235.467 52.912ZM242.379 27.248C241.91 26.9067 241.547 26.5013 241.291 26.032C241.078 25.52 240.95 25.072 240.907 24.688C240.907 24.304 240.95 24.0693 241.035 23.984C241.462 23.5147 241.824 22.896 242.123 22.128C242.464 21.36 242.827 20.656 243.211 20.016C243.296 19.888 243.403 19.7173 243.531 19.504C243.702 19.248 243.872 19.0987 244.043 19.056C244.555 18.7147 245.259 18.736 246.155 19.12C247.094 19.504 247.776 20.0373 248.203 20.72C248.587 21.5307 248.694 22.3627 248.523 23.216C248.395 24.0693 247.947 24.9653 247.179 25.904C246.539 26.7573 245.728 27.312 244.747 27.568C243.766 27.7813 242.976 27.6747 242.379 27.248ZM249.63 54.192C249.288 54.064 248.84 53.7227 248.286 53.168C247.731 52.5707 247.24 51.9307 246.814 51.248C246.387 50.5227 246.174 49.9253 246.174 49.456C246.387 48.9867 246.664 48.1547 247.006 46.96C247.39 45.7653 247.816 44.4213 248.286 42.928C248.627 42.4587 248.883 41.9253 249.054 41.328C249.267 40.688 249.459 40.112 249.63 39.6C249.971 38.832 250.355 37.9573 250.782 36.976C251.208 35.9947 251.614 34.992 251.998 33.968C252.424 32.944 252.808 32.048 253.15 31.28C253.747 30 254.238 28.8907 254.622 27.952C255.048 26.9707 255.454 26.0107 255.838 25.072C256.264 24.1333 256.712 23.088 257.182 21.936C257.822 20.6133 258.398 19.312 258.91 18.032C259.464 16.7093 259.934 15.536 260.318 14.512C260.744 13.488 261 12.7627 261.086 12.336C261.043 11.9947 261.086 11.76 261.214 11.632C261.342 11.4613 261.512 11.3547 261.726 11.312C261.939 11.184 262.28 11.0987 262.75 11.056C263.219 11.0133 263.539 10.992 263.71 10.992C264.222 11.0773 264.734 11.504 265.246 12.272C265.8 12.9973 266.078 13.616 266.078 14.128C266.078 14.8107 265.736 16.0907 265.054 17.968C264.414 19.8027 263.475 21.9787 262.238 24.496C260.744 27.696 259.614 30.1707 258.846 31.92C258.12 33.6693 257.63 34.9067 257.374 35.632C257.118 36.3573 257.011 36.8267 257.054 37.04C257.054 37.04 257.224 36.976 257.566 36.848C257.907 36.72 258.419 36.4213 259.102 35.952C259.571 35.6533 260.104 35.2693 260.702 34.8C261.299 34.3307 261.875 33.904 262.43 33.52C263.027 33.136 263.496 32.9013 263.838 32.816C264.051 32.6453 264.35 32.432 264.734 32.176C265.118 31.92 265.48 31.6853 265.822 31.472C266.632 30.8747 267.272 30.6827 267.742 30.896C268.211 31.1093 268.638 31.472 269.022 31.984C269.491 32.5387 269.662 33.136 269.534 33.776C269.448 34.3733 268.787 35.1627 267.55 36.144C266.611 36.8267 265.608 37.488 264.542 38.128C263.475 38.7253 262.494 39.2587 261.598 39.728C260.744 40.1973 260.126 40.5813 259.742 40.88C259.742 40.88 259.934 41.1573 260.318 41.712C260.702 42.2667 261.064 42.8 261.406 43.312C261.747 43.9947 262.174 44.8693 262.686 45.936C263.198 46.96 263.582 47.6853 263.838 48.112C264.307 48.7947 264.776 49.2427 265.246 49.456C265.758 49.6693 266.504 49.6053 267.486 49.264C268.126 49.0933 268.659 49.1147 269.086 49.328C269.555 49.4987 269.939 49.7973 270.238 50.224C270.408 50.5653 270.494 50.9067 270.494 51.248C270.494 51.5893 270.216 51.9947 269.662 52.464C268.467 53.2747 267.294 53.9573 266.142 54.512C265.032 55.1093 263.966 55.0667 262.942 54.384C262.046 53.7013 261.192 52.9333 260.382 52.08C259.614 51.184 258.739 50.096 257.758 48.816C257.758 48.6453 257.63 48.2827 257.374 47.728C257.118 47.1733 256.947 46.8533 256.862 46.768C256.691 46.4267 256.499 46.128 256.286 45.872C256.115 45.5733 256.03 45.424 256.03 45.424C255.902 44.9547 255.731 44.5707 255.518 44.272C255.347 43.9733 255.112 43.8027 254.814 43.76C254.643 43.888 254.451 44.1013 254.238 44.4C254.024 44.6987 253.811 45.0613 253.598 45.488C253.342 46.128 253.086 46.768 252.83 47.408C252.574 48.0053 252.36 48.6667 252.19 49.392C252.019 50.0747 251.912 50.9067 251.87 51.888C251.912 52.3573 251.72 52.8693 251.294 53.424C250.867 53.936 250.312 54.192 249.63 54.192ZM278.239 55.152C275.892 55.152 274.079 54.4693 272.799 53.104C271.562 51.7387 270.943 49.648 270.943 46.832C270.943 45.296 271.22 43.6107 271.775 41.776C272.372 39.9413 273.14 38.1493 274.079 36.4C275.06 34.6507 276.127 33.136 277.279 31.856C278.431 30.5333 279.583 29.616 280.735 29.104C281.162 28.8907 281.61 28.7413 282.079 28.656C282.591 28.528 283.082 28.464 283.551 28.464C284.063 28.464 284.618 28.5067 285.215 28.592C285.855 28.6347 286.452 28.7627 287.007 28.976C287.988 29.2747 288.842 29.8507 289.567 30.704C290.335 31.5573 290.719 32.7947 290.719 34.416C290.719 34.8427 290.676 35.312 290.591 35.824C290.506 36.2933 290.356 36.7627 290.143 37.232C289.588 38.64 288.735 39.984 287.583 41.264C286.474 42.544 285.3 43.44 284.063 43.952C283.722 44.1227 283.38 44.2507 283.039 44.336C282.74 44.3787 282.42 44.4 282.079 44.4C281.183 44.4 280.372 44.272 279.647 44.016C278.964 43.76 278.324 43.4187 277.727 42.992L277.215 42.544L276.895 43.184C276.596 43.9947 276.383 44.6773 276.255 45.232C276.17 45.7867 276.127 46.192 276.127 46.448C276.127 46.96 276.148 47.4933 276.191 48.048C276.234 48.56 276.362 48.9867 276.575 49.328C276.746 49.5413 276.959 49.712 277.215 49.84C277.514 49.968 277.876 50.032 278.303 50.032C278.559 50.032 278.794 50.032 279.007 50.032C279.263 49.9893 279.476 49.9467 279.647 49.904C280.415 49.7333 281.034 49.456 281.503 49.072C282.015 48.6453 282.548 48.2827 283.103 47.984L283.359 47.856L283.295 47.664C284.02 47.28 284.511 47.0453 284.767 46.96C285.023 46.832 285.215 46.7253 285.343 46.64C285.514 46.4693 285.706 46.384 285.919 46.384C286.516 46.2987 287.092 46.4693 287.647 46.896C288.244 47.28 288.543 47.7707 288.543 48.368C288.543 48.624 288.351 49.0293 287.967 49.584C287.626 50.1387 287.178 50.6933 286.623 51.248C286.111 51.76 285.578 52.1653 285.023 52.464C284.895 52.5067 284.767 52.5707 284.639 52.656C284.511 52.6987 284.383 52.7627 284.255 52.848H284.319C283.935 53.36 283.551 53.616 283.167 53.616H282.655C282.484 53.9147 281.93 54.2347 280.991 54.576C280.052 54.96 279.135 55.152 278.239 55.152ZM281.567 39.728C281.951 39.728 282.292 39.664 282.591 39.536C282.932 39.408 283.252 39.2587 283.551 39.088C284.575 38.3627 285.236 37.424 285.535 36.272C285.834 35.12 285.727 34.2453 285.215 33.648C285.13 33.52 285.023 33.4347 284.895 33.392C284.767 33.3067 284.618 33.264 284.447 33.264C283.978 33.264 283.444 33.4133 282.847 33.712C282.292 34.0107 281.738 34.4373 281.183 34.992C280.628 35.5467 280.116 36.208 279.647 36.976L278.815 38.32C278.9 38.2773 278.964 38.256 279.007 38.256C279.092 38.2133 279.156 38.192 279.199 38.192C279.583 38.192 279.839 38.32 279.967 38.576C280.095 38.832 280.244 39.088 280.415 39.344C280.628 39.6 281.012 39.728 281.567 39.728ZM313.834 56.624C313.535 56.1547 313.023 55.856 312.298 55.728C311.573 55.6 310.463 55.5787 308.97 55.664C308.373 55.7493 307.754 55.7067 307.114 55.536C306.474 55.3653 305.962 55.1093 305.578 54.768C305.194 54.4267 305.045 54.0853 305.13 53.744C305.173 53.232 305.77 52.6773 306.922 52.08C308.074 51.4827 309.567 51.1627 311.402 51.12L314.09 51.056L314.73 49.776C314.901 49.3067 315.029 48.7947 315.114 48.24C315.242 47.6853 315.455 46.9173 315.754 45.936C315.925 45.3387 316.181 44.5067 316.522 43.44C316.863 42.3733 317.226 41.2427 317.61 40.048C317.994 38.8107 318.335 37.7013 318.634 36.72C318.933 35.7387 319.125 35.056 319.21 34.672C319.381 34.288 319.615 33.648 319.914 32.752C320.213 31.8133 320.49 30.8747 320.746 29.936C321.045 28.9547 321.237 28.2507 321.322 27.824C322.431 24.4533 323.157 22.1067 323.498 20.784C323.839 19.4187 323.925 18.7147 323.754 18.672C323.583 18.672 323.178 18.6933 322.538 18.736C321.898 18.7787 321.194 18.8427 320.426 18.928C319.658 18.9707 318.975 19.0347 318.378 19.12C317.781 19.2053 317.418 19.2907 317.29 19.376C317.077 19.6747 316.714 19.632 316.202 19.248C315.69 18.8213 315.37 18.3947 315.242 17.968C315.199 17.584 315.199 17.2213 315.242 16.88C315.285 16.5387 315.413 16.304 315.626 16.176C315.925 15.92 316.543 15.6427 317.482 15.344C318.421 15.0027 319.466 14.704 320.618 14.448C321.813 14.192 322.901 14 323.882 13.872C324.607 13.7867 325.333 13.6373 326.058 13.424C326.783 13.168 327.359 12.8693 327.786 12.528C328.17 12.4 328.533 12.2933 328.874 12.208C329.258 12.1227 329.642 12.1013 330.026 12.144C330.367 12.3573 330.943 12.464 331.754 12.464C332.607 12.464 333.503 12.4427 334.442 12.4C336.831 12.1867 338.495 12.272 339.434 12.656C340.415 12.9973 341.055 13.4667 341.354 14.064C341.567 14.8747 341.525 15.5573 341.226 16.112C340.927 16.624 340.415 16.8587 339.69 16.816C339.306 16.9013 338.773 16.9867 338.09 17.072C337.407 17.1147 336.511 17.1573 335.402 17.2C332.586 17.456 331.071 17.7547 330.858 18.096C330.687 18.2667 330.538 18.4373 330.41 18.608C330.325 18.7787 330.197 18.9707 330.026 19.184C330.069 19.3547 329.962 19.8667 329.706 20.72C329.493 21.5307 329.215 22.4053 328.874 23.344C328.703 23.8987 328.447 24.688 328.106 25.712C327.765 26.736 327.402 27.8027 327.018 28.912C326.677 29.9787 326.357 30.96 326.058 31.856C325.759 32.7093 325.546 33.2853 325.418 33.584C325.247 33.968 325.098 34.3947 324.97 34.864C324.885 35.2907 324.821 35.6107 324.778 35.824C324.181 37.9147 323.669 39.664 323.242 41.072C322.858 42.48 322.517 43.7173 322.218 44.784C321.919 45.808 321.642 46.8107 321.386 47.792C321.13 48.7307 320.831 49.7973 320.49 50.992C320.49 50.992 320.853 50.9707 321.578 50.928C322.303 50.8427 323.221 50.7573 324.33 50.672C326.335 50.4587 327.701 50.3307 328.426 50.288C329.151 50.2453 329.578 50.3093 329.706 50.48C329.834 50.608 329.962 50.864 330.09 51.248C330.943 52.4 330.879 53.36 329.898 54.128C328.959 54.896 327.295 55.2587 324.906 55.216C322.687 55.3013 321.045 55.3653 319.978 55.408C318.954 55.4933 318.293 55.6 317.994 55.728C317.695 55.856 317.546 56.0693 317.546 56.368C317.589 57.0507 317.162 57.456 316.266 57.584C315.413 57.7547 314.602 57.4347 313.834 56.624ZM343.158 54.384C342.56 54.2133 341.963 53.9147 341.366 53.488C340.768 53.0613 340.15 52.5707 339.51 52.016C338.998 51.3333 338.635 50.7147 338.422 50.16C338.208 49.5627 338.08 48.88 338.038 48.112C338.038 47.3013 338.038 46.2773 338.038 45.04C338.038 44.528 338.123 43.8027 338.294 42.864C338.507 41.9253 338.72 40.944 338.934 39.92C339.19 38.896 339.424 38 339.638 37.232C339.851 36.4213 339.979 35.888 340.022 35.632C340.15 35.0773 339.936 34.7573 339.382 34.672C338.827 34.5867 338.208 34.5653 337.526 34.608C336.886 34.608 336.459 34.544 336.246 34.416C336.075 34.3733 335.99 34.16 335.99 33.776C335.99 33.3493 335.99 33.136 335.99 33.136C335.99 32.9653 335.904 32.8587 335.734 32.816C335.563 32.7307 335.414 32.5813 335.286 32.368C335.2 32.1973 335.307 31.8773 335.606 31.408C335.904 30.9387 336.288 30.6613 336.758 30.576C337.142 30.4907 337.718 30.4267 338.486 30.384C339.254 30.2987 340.022 30.1493 340.79 29.936C341.6 29.68 342.219 29.296 342.646 28.784C343.03 27.8453 343.456 26.8427 343.926 25.776C344.395 24.6667 344.843 23.7067 345.27 22.896C345.696 22.0427 345.995 21.5093 346.166 21.296C346.891 20.912 347.638 20.7627 348.406 20.848C349.174 20.8907 349.771 21.2533 350.198 21.936C350.411 22.2347 350.582 22.448 350.71 22.576C350.88 22.704 350.944 22.896 350.902 23.152C350.902 23.408 350.731 23.8773 350.39 24.56C350.091 25.2 349.579 26.2027 348.854 27.568C348.64 27.9947 348.448 28.3787 348.278 28.72C348.107 29.0187 348.022 29.168 348.022 29.168C348.192 29.2107 348.448 29.232 348.79 29.232C349.131 29.232 349.558 29.2107 350.07 29.168C350.539 29.0827 351.051 29.0187 351.606 28.976C352.16 28.8907 352.651 28.8907 353.078 28.976C354.059 28.976 354.784 29.2533 355.254 29.808C355.723 30.3627 355.979 31.0667 356.022 31.92C356.107 32.3893 355.936 32.7947 355.51 33.136C355.083 33.4773 354.294 33.648 353.142 33.648C352.758 33.648 352.203 33.6693 351.478 33.712C350.752 33.7547 350.006 33.7973 349.238 33.84C348.47 33.8827 347.808 33.9467 347.253 34.032C346.742 34.0747 346.486 34.1387 346.486 34.224C346.358 34.3093 346.144 34.6507 345.846 35.248C345.59 35.8027 345.312 36.4853 345.014 37.296C344.758 38.1067 344.523 38.8747 344.31 39.6C344.011 41.0507 343.798 42.4587 343.67 43.824C343.542 45.1893 343.52 46.384 343.606 47.408C343.734 48.3893 343.99 49.0933 344.374 49.52C344.758 49.904 345.334 49.904 346.102 49.52C346.912 49.0933 347.659 48.6027 348.342 48.048C349.11 47.408 349.771 47.216 350.326 47.472C350.88 47.6853 351.222 48.1547 351.35 48.88C351.52 49.5627 351.328 50.3093 350.774 51.12C350.262 51.9307 349.536 52.6133 348.598 53.168C347.659 53.7227 346.699 54.1067 345.718 54.32C344.736 54.576 343.883 54.5973 343.158 54.384ZM363.577 26.224C363.15 26.2667 362.617 26.2667 361.977 26.224C361.38 26.1813 361.017 25.776 360.889 25.008C360.846 24.7093 360.889 24.432 361.017 24.176C361.145 23.92 361.316 23.6427 361.529 23.344C362.041 22.4907 362.617 21.552 363.257 20.528C363.94 19.504 364.388 18.672 364.601 18.032C364.601 17.8613 364.622 17.712 364.665 17.584C363.94 17.712 363.193 17.456 362.425 16.816C361.614 16.048 361.38 15.0453 361.721 13.808C362.105 12.528 362.852 11.504 363.961 10.736C364.729 10.2667 365.454 10.0107 366.137 9.968C366.82 9.92533 367.545 10.0747 368.313 10.416C369.038 10.8427 369.636 11.504 370.105 12.4C370.574 13.2533 370.702 13.9573 370.489 14.512C370.361 15.4933 370.126 16.4107 369.785 17.264C369.486 18.1173 369.209 18.9493 368.953 19.76C368.697 20.6987 368.164 21.7013 367.353 22.768C366.585 23.792 365.838 24.7307 365.113 25.584C365.156 25.7547 365.028 25.8613 364.729 25.904C364.43 25.9467 364.046 26.0533 363.577 26.224ZM366.917 54.384C365.466 53.7867 364.4 53.168 363.717 52.528C363.077 51.8453 362.821 51.248 362.949 50.736C363.034 50.48 363.184 50.2453 363.397 50.032C363.61 49.8187 364.08 49.7333 364.805 49.776C365.573 49.776 366.746 49.968 368.325 50.352C368.794 50.352 369.264 50.3307 369.733 50.288C370.202 50.2453 370.629 50.1813 371.013 50.096C371.44 50.0107 371.781 49.904 372.037 49.776C372.25 49.6907 372.314 49.584 372.229 49.456C372.144 49.2853 371.994 49.1147 371.781 48.944C371.61 48.7307 371.418 48.6027 371.205 48.56C370.992 48.4747 370.8 48.432 370.629 48.432C370.544 48.2187 370.352 48.0053 370.053 47.792C369.797 47.5787 369.477 47.344 369.093 47.088C368.154 46.32 367.301 45.6373 366.533 45.04C365.765 44.4427 365.466 43.9947 365.637 43.696C365.637 43.5253 365.637 43.44 365.637 43.44C365.637 43.3973 365.637 43.376 365.637 43.376C365.338 43.376 365.061 42.9707 364.805 42.16C364.549 41.3067 364.421 40.5387 364.421 39.856C364.421 39.0027 364.592 38.1493 364.933 37.296C365.317 36.4427 365.786 35.632 366.341 34.864C366.938 34.096 367.536 33.4133 368.133 32.816C368.944 32.048 369.797 31.3013 370.693 30.576C371.632 29.808 372.634 29.1253 373.701 28.528C374.81 27.9307 376.026 27.4613 377.349 27.12C377.946 26.992 378.629 26.928 379.397 26.928C380.165 26.928 380.72 27.0347 381.061 27.248C381.402 27.0347 381.829 27.0987 382.341 27.44C382.853 27.7387 383.365 28.1653 383.877 28.72C384.389 29.2747 384.773 29.8293 385.029 30.384C385.029 30.896 385.008 31.536 384.965 32.304C384.965 33.0293 384.922 33.6693 384.837 34.224C384.752 34.7787 384.56 35.056 384.261 35.056C384.261 35.056 384.197 35.0773 384.069 35.12C383.984 35.12 383.941 35.2267 383.941 35.44C383.941 35.8667 383.621 36.3573 382.981 36.912C382.17 37.4667 381.402 37.9147 380.677 38.256C379.952 38.5973 379.397 38.6187 379.013 38.32C378.757 38.1493 378.522 37.9787 378.309 37.808C378.096 37.6373 377.904 37.424 377.733 37.168C377.733 37.168 377.669 37.0827 377.541 36.912C377.456 36.6987 377.413 36.5067 377.413 36.336C377.413 36.1653 377.477 36.016 377.605 35.888C377.733 35.7173 377.797 35.632 377.797 35.632C378.394 35.0773 378.842 34.5653 379.141 34.096C379.482 33.6267 379.717 33.2213 379.845 32.88C379.973 32.496 380.037 32.1973 380.037 31.984C380.037 31.728 379.973 31.5787 379.845 31.536C379.76 31.4507 379.546 31.408 379.205 31.408C378.992 31.408 378.522 31.5787 377.797 31.92C377.114 32.2613 376.389 32.688 375.621 33.2C374.853 33.6693 374.256 34.096 373.829 34.48C373.658 34.7787 373.53 34.9707 373.445 35.056C373.402 35.1413 373.296 35.184 373.125 35.184C373.125 35.0133 373.018 35.0347 372.805 35.248C372.592 35.4613 372.336 35.76 372.037 36.144C371.738 36.528 371.44 36.9333 371.141 37.36C370.842 37.7867 370.608 38.128 370.437 38.384C370.394 38.768 370.288 39.1307 370.117 39.472C369.989 39.7707 369.946 40.0907 369.989 40.432C370.032 40.8587 370.245 41.264 370.629 41.648C371.013 42.032 371.568 42.5227 372.293 43.12C373.786 44.2293 374.896 45.104 375.621 45.744C376.389 46.384 376.922 46.896 377.221 47.28C377.52 47.664 377.712 48.048 377.797 48.432C378.522 49.7547 378.608 50.9067 378.053 51.888C377.498 52.8267 376.645 53.552 375.493 54.064C375.066 54.2773 374.32 54.4693 373.253 54.64C372.186 54.8533 371.056 54.9387 369.861 54.896C368.709 54.896 367.728 54.7253 366.917 54.384Z" fill="#03A9F4"/>
<path d="M408.53 59V14.31L399.1 17.59L395 8.16L410.17 1.6H423.29V59H408.53ZM433.972 47.11C445.234 47.93 453.16 48.34 457.752 48.34C459.01 48.34 459.994 47.9847 460.704 47.274C461.47 46.5087 461.852 45.4973 461.852 44.24V36.86C456.55 37.9533 451.903 38.5 447.912 38.5H442.172C438.455 38.5 435.476 37.3793 433.234 35.138C430.993 32.8967 429.872 29.9173 429.872 26.2V15.54C429.872 10.5653 431.13 6.87533 433.644 4.47C436.159 2.01 440.095 0.779997 445.452 0.779997H461.032C466.39 0.779997 470.326 2.01 472.84 4.47C475.355 6.87533 476.612 10.5653 476.612 15.54V44.24C476.612 49.5973 475.355 53.5333 472.84 56.048C470.326 58.5627 466.39 59.82 461.032 59.82C453.543 59.82 444.523 59.2733 433.972 58.18V47.11ZM452.012 27.02C455.128 27.02 458.408 26.7467 461.852 26.2V17.18C461.852 13.9 460.212 12.26 456.932 12.26H449.552C446.272 12.26 444.632 13.9 444.632 17.18V24.15C444.632 24.97 444.906 25.6533 445.452 26.2C445.999 26.7467 446.682 27.02 447.502 27.02H452.012ZM502.023 36.04C498.743 36.04 497.103 37.68 497.103 40.96V44.24C497.103 45.4973 497.458 46.5087 498.169 47.274C498.934 47.9847 499.945 48.34 501.203 48.34H513.503C514.76 48.34 515.744 47.9847 516.455 47.274C517.22 46.5087 517.603 45.4973 517.603 44.24V40.96C517.603 37.68 515.963 36.04 512.683 36.04H502.023ZM503.663 12.26C500.383 12.26 498.743 13.9 498.743 17.18V19.64C498.743 22.92 500.383 24.56 503.663 24.56H511.043C514.323 24.56 515.963 22.92 515.963 19.64V17.18C515.963 13.9 514.323 12.26 511.043 12.26H503.663ZM532.363 44.24C532.363 49.5973 531.105 53.5333 528.591 56.048C526.076 58.5627 522.14 59.82 516.783 59.82H497.923C492.565 59.82 488.629 58.5627 486.115 56.048C483.6 53.5333 482.343 49.5973 482.343 44.24V43.42C482.343 39.2653 483.381 35.8213 485.459 33.088C487.099 30.9013 489.34 29.4253 492.183 28.66C489.723 27.84 487.727 26.4187 486.197 24.396C484.721 22.3187 483.983 19.64 483.983 16.36V15.54C483.983 10.5653 485.24 6.87533 487.755 4.47C490.269 2.01 494.205 0.779997 499.563 0.779997H515.143C520.5 0.779997 524.436 2.01 526.951 4.47C529.465 6.87533 530.723 10.5653 530.723 15.54V16.36C530.723 19.64 529.957 22.3187 528.427 24.396C526.951 26.4187 524.983 27.84 522.523 28.66C526.951 29.8627 529.957 32.8147 531.543 37.516C532.089 39.2107 532.363 41.1787 532.363 43.42V44.24ZM564.336 15.54H580.326L567.206 37.27L580.736 59H564.746L557.366 45.88L549.986 59H533.996L547.526 37.27L534.406 15.54H550.396L557.366 28.66L564.336 15.54Z" fill="#FFC107"/>
</svg>
