<svg width="601" height="60" viewBox="0 0 601 60" fill="none" xmlns="http://www.w3.org/2000/svg">
<path d="M0.576004 43.568V15.852C0.576004 6.23067 5.38667 1.42 15.008 1.42H36.246L42.642 6.34V14.294H15.746C15.1447 14.294 14.844 14.5947 14.844 15.196V44.224C14.844 44.8253 15.1447 45.126 15.746 45.126H42.642V53.08L36.246 58H15.008C5.38667 58 0.576004 53.1893 0.576004 43.568Z" fill="#F44336"/>
<path d="M52.3065 43.568V15.852C52.3065 6.23067 57.1171 1.42 66.7385 1.42H85.1065C94.7278 1.42 99.5385 6.23067 99.5385 15.852V43.568C99.5385 53.1893 94.7278 58 85.1065 58H66.7385C57.1171 58 52.3065 53.1893 52.3065 43.568ZM66.5745 44.224C66.5745 44.8253 66.8751 45.126 67.4765 45.126H84.3685C84.9698 45.126 85.2705 44.8253 85.2705 44.224V15.196C85.2705 14.5947 84.9698 14.294 84.3685 14.294H67.4765C66.8751 14.294 66.5745 14.5947 66.5745 15.196V44.224Z" fill="#F44336"/>
<path d="M111.503 58V1.42H132.659C148.95 1.42 157.095 9.56533 157.095 25.856V33.564C157.095 49.8547 148.95 58 132.659 58H111.503ZM125.771 45.126H133.479C139.711 45.126 142.827 41.9827 142.827 35.696V23.724C142.827 17.4373 139.711 14.294 133.479 14.294H125.771V45.126Z" fill="#F44336"/>
<path d="M168.279 58V1.42H207.885V14.294H182.547V22.74H205.425V35.614H182.547V45.126H207.885V58H168.279Z" fill="#F44336"/>
<path d="M233.416 55.904C231.709 55.4773 230.323 54.5813 229.256 53.216C228.232 51.8933 227.4 50.2933 226.76 48.416C226.717 47.8613 226.696 47.0933 226.696 46.112C226.739 45.1307 226.803 44.2133 226.888 43.36C226.973 42.5067 227.059 42.016 227.144 41.888C227.272 41.8027 227.336 41.5467 227.336 41.12C227.293 40.9493 227.315 40.672 227.4 40.288C227.528 39.8613 227.656 39.4347 227.784 39.008C227.997 38.496 228.104 38.0907 228.104 37.792C228.104 37.4507 228.083 37.1947 228.04 37.024C228.04 37.024 228.104 36.896 228.232 36.64C228.36 36.3413 228.509 36.1067 228.68 35.936C228.936 35.68 229.043 35.424 229 35.168C229 34.912 229 34.784 229 34.784C228.957 34.6133 229 34.3787 229.128 34.08C229.256 33.7813 229.384 33.5467 229.512 33.376C229.597 33.2907 229.704 33.12 229.832 32.864C230.003 32.5653 230.088 32.416 230.088 32.416C230.088 32.288 230.173 31.9467 230.344 31.392C230.557 30.8373 230.792 30.24 231.048 29.6C231.304 28.9173 231.539 28.2987 231.752 27.744C232.008 27.1893 232.2 26.8267 232.328 26.656V26.528C232.499 26.1013 232.733 25.6533 233.032 25.184C233.075 24.9707 233.181 24.6293 233.352 24.16C233.523 23.648 233.715 23.1573 233.928 22.688C234.397 21.664 234.973 20.512 235.656 19.232C236.381 17.9093 237.149 16.608 237.96 15.328C238.771 14.0053 239.539 12.832 240.264 11.808C241.032 10.7413 241.693 9.952 242.248 9.44C242.973 8.62933 243.699 8.05333 244.424 7.712C245.192 7.328 245.896 7.456 246.536 8.096C246.835 8.39467 247.091 8.84267 247.304 9.44C247.517 9.99467 247.603 10.528 247.56 11.04C247.56 11.5093 247.389 11.7653 247.048 11.808C246.749 11.9787 246.344 12.4693 245.832 13.28C245.32 14.048 244.744 14.9653 244.104 16.032C243.507 17.0987 242.909 18.208 242.312 19.36C241.715 20.4693 241.16 21.472 240.648 22.368C240.093 23.6053 239.581 24.6933 239.112 25.632C238.643 26.528 238.408 26.976 238.408 26.976C238.365 27.104 238.323 27.2107 238.28 27.296C238.237 27.3813 238.195 27.4667 238.152 27.552C237.512 28.8747 236.979 30.0907 236.552 31.2C236.125 32.2667 235.699 33.3973 235.272 34.592C235.016 34.8907 234.867 35.1893 234.824 35.488C234.781 35.7867 234.76 35.936 234.76 35.936C234.675 35.8933 234.611 36 234.568 36.256C234.525 36.4693 234.44 36.7253 234.312 37.024C234.099 37.1947 233.971 37.472 233.928 37.856C233.885 38.1973 233.864 38.5387 233.864 38.88C233.565 39.648 233.288 40.5867 233.032 41.696C232.776 42.7627 232.584 43.808 232.456 44.832C232.371 45.8133 232.349 46.5813 232.392 47.136C232.477 47.8613 232.669 48.48 232.968 48.992C233.309 49.4613 233.779 49.8453 234.376 50.144C234.845 50.3573 235.272 50.5493 235.656 50.72C236.04 50.848 236.381 50.912 236.68 50.912C237.021 50.9547 237.448 50.9547 237.96 50.912C238.515 50.8267 239.261 50.6987 240.2 50.528H240.136C240.691 50.4427 241.267 50.336 241.864 50.208C242.504 50.0373 243.101 49.888 243.656 49.76C244.168 49.6747 244.659 49.5893 245.128 49.504C245.597 49.376 245.96 49.2693 246.216 49.184C247.155 48.928 247.901 48.7147 248.456 48.544C249.053 48.3733 249.459 48.3733 249.672 48.544C249.885 48.7147 250.12 49.0347 250.376 49.504C250.632 49.9733 250.696 50.4 250.568 50.784C250.483 50.9973 250.056 51.424 249.288 52.064C248.52 52.7467 247.645 53.408 246.664 54.048C245.683 54.7307 244.787 55.2 243.976 55.456C243.123 55.84 241.971 56.096 240.52 56.224C239.112 56.3947 237.747 56.4373 236.424 56.352C235.101 56.2667 234.099 56.1173 233.416 55.904Z" fill="#03A9F4"/>
<path d="M255.467 50.912C255.126 50.5707 254.87 50.0587 254.699 49.376C254.571 48.6933 254.528 48.032 254.571 47.392C254.614 46.7093 254.72 46.1973 254.891 45.856C254.891 45.5147 254.934 45.2587 255.019 45.088C255.147 44.8747 255.19 44.6827 255.147 44.512C255.104 44.3413 255.147 44.0427 255.275 43.616C255.403 43.1893 255.531 42.784 255.659 42.4C255.958 41.7173 256.299 40.8427 256.683 39.776C257.067 38.6667 257.451 37.5573 257.835 36.448C258.219 35.296 258.539 34.3147 258.795 33.504C259.051 32.6507 259.2 32.1387 259.243 31.968C259.243 31.456 259.584 31.1787 260.267 31.136C260.779 30.9653 261.398 31.1787 262.123 31.776C262.848 32.3733 263.424 33.0133 263.851 33.696C264.192 34.0373 264.32 34.4853 264.235 35.04C264.15 35.5947 263.872 36.384 263.403 37.408C263.232 37.7493 263.019 38.3253 262.763 39.136C262.55 39.904 262.4 40.544 262.315 41.056C262.144 41.3973 261.931 41.888 261.675 42.528C261.462 43.1253 261.27 43.7013 261.099 44.256C261.014 44.4693 260.928 44.8747 260.843 45.472C260.758 46.0267 260.651 46.6027 260.523 47.2C260.395 47.7973 260.224 48.2667 260.011 48.608C259.627 50.3573 258.944 51.3813 257.963 51.68C257.024 51.9787 256.192 51.7227 255.467 50.912ZM262.379 25.248C261.91 24.9067 261.547 24.5013 261.291 24.032C261.078 23.52 260.95 23.072 260.907 22.688C260.907 22.304 260.95 22.0693 261.035 21.984C261.462 21.5147 261.824 20.896 262.123 20.128C262.464 19.36 262.827 18.656 263.211 18.016C263.296 17.888 263.403 17.7173 263.531 17.504C263.702 17.248 263.872 17.0987 264.043 17.056C264.555 16.7147 265.259 16.736 266.155 17.12C267.094 17.504 267.776 18.0373 268.203 18.72C268.587 19.5307 268.694 20.3627 268.523 21.216C268.395 22.0693 267.947 22.9653 267.179 23.904C266.539 24.7573 265.728 25.312 264.747 25.568C263.766 25.7813 262.976 25.6747 262.379 25.248Z" fill="#03A9F4"/>
<path d="M269.63 52.192C269.288 52.064 268.84 51.7227 268.286 51.168C267.731 50.5707 267.24 49.9307 266.813 49.248C266.387 48.5227 266.174 47.9253 266.174 47.456C266.387 46.9867 266.664 46.1547 267.006 44.96C267.39 43.7653 267.816 42.4213 268.286 40.928C268.627 40.4587 268.883 39.9253 269.054 39.328C269.267 38.688 269.459 38.112 269.63 37.6C269.971 36.832 270.355 35.9573 270.782 34.976C271.208 33.9947 271.614 32.992 271.998 31.968C272.424 30.944 272.808 30.048 273.149 29.28C273.747 28 274.238 26.8907 274.622 25.952C275.048 24.9707 275.454 24.0107 275.838 23.072C276.264 22.1333 276.712 21.088 277.182 19.936C277.822 18.6133 278.398 17.312 278.91 16.032C279.464 14.7093 279.933 13.536 280.317 12.512C280.744 11.488 281 10.7627 281.085 10.336C281.043 9.99467 281.086 9.76 281.214 9.632C281.342 9.46133 281.512 9.35467 281.726 9.312C281.939 9.184 282.28 9.09867 282.749 9.056C283.219 9.01333 283.539 8.992 283.71 8.992C284.222 9.07733 284.733 9.504 285.245 10.272C285.8 10.9973 286.077 11.616 286.077 12.128C286.077 12.8107 285.736 14.0907 285.054 15.968C284.414 17.8027 283.475 19.9787 282.238 22.496C280.744 25.696 279.614 28.1707 278.846 29.92C278.12 31.6693 277.629 32.9067 277.373 33.632C277.117 34.3573 277.011 34.8267 277.054 35.04C277.054 35.04 277.224 34.976 277.566 34.848C277.907 34.72 278.419 34.4213 279.102 33.952C279.571 33.6533 280.104 33.2693 280.701 32.8C281.299 32.3307 281.875 31.904 282.429 31.52C283.027 31.136 283.496 30.9013 283.838 30.816C284.051 30.6453 284.35 30.432 284.734 30.176C285.118 29.92 285.48 29.6853 285.822 29.472C286.632 28.8747 287.272 28.6827 287.742 28.896C288.211 29.1093 288.637 29.472 289.021 29.984C289.491 30.5387 289.661 31.136 289.533 31.776C289.448 32.3733 288.787 33.1627 287.55 34.144C286.611 34.8267 285.608 35.488 284.542 36.128C283.475 36.7253 282.494 37.2587 281.598 37.728C280.744 38.1973 280.126 38.5813 279.742 38.88C279.742 38.88 279.933 39.1573 280.317 39.712C280.701 40.2667 281.064 40.8 281.406 41.312C281.747 41.9947 282.174 42.8693 282.686 43.936C283.198 44.96 283.582 45.6853 283.838 46.112C284.307 46.7947 284.776 47.2427 285.245 47.456C285.757 47.6693 286.504 47.6053 287.485 47.264C288.125 47.0933 288.659 47.1147 289.085 47.328C289.555 47.4987 289.939 47.7973 290.238 48.224C290.408 48.5653 290.494 48.9067 290.494 49.248C290.494 49.5893 290.216 49.9947 289.662 50.464C288.467 51.2747 287.293 51.9573 286.141 52.512C285.032 53.1093 283.966 53.0667 282.942 52.384C282.046 51.7013 281.192 50.9333 280.382 50.08C279.614 49.184 278.739 48.096 277.757 46.816C277.757 46.6453 277.629 46.2827 277.373 45.728C277.117 45.1733 276.947 44.8533 276.861 44.768C276.691 44.4267 276.499 44.128 276.286 43.872C276.115 43.5733 276.029 43.424 276.029 43.424C275.901 42.9547 275.731 42.5707 275.518 42.272C275.347 41.9733 275.112 41.8027 274.813 41.76C274.643 41.888 274.451 42.1013 274.238 42.4C274.024 42.6987 273.811 43.0613 273.598 43.488C273.342 44.128 273.086 44.768 272.83 45.408C272.574 46.0053 272.36 46.6667 272.189 47.392C272.019 48.0747 271.912 48.9067 271.869 49.888C271.912 50.3573 271.72 50.8693 271.294 51.424C270.867 51.936 270.312 52.192 269.63 52.192Z" fill="#03A9F4"/>
<path d="M298.239 53.152C295.892 53.152 294.079 52.4693 292.799 51.104C291.562 49.7387 290.943 47.648 290.943 44.832C290.943 43.296 291.22 41.6107 291.775 39.776C292.372 37.9413 293.14 36.1493 294.079 34.4C295.06 32.6507 296.127 31.136 297.279 29.856C298.431 28.5333 299.583 27.616 300.735 27.104C301.162 26.8907 301.61 26.7413 302.079 26.656C302.591 26.528 303.082 26.464 303.551 26.464C304.063 26.464 304.618 26.5067 305.215 26.592C305.855 26.6347 306.452 26.7627 307.007 26.976C307.988 27.2747 308.842 27.8507 309.567 28.704C310.335 29.5573 310.719 30.7947 310.719 32.416C310.719 32.8427 310.676 33.312 310.591 33.824C310.506 34.2933 310.356 34.7627 310.143 35.232C309.588 36.64 308.735 37.984 307.583 39.264C306.474 40.544 305.3 41.44 304.063 41.952C303.722 42.1227 303.38 42.2507 303.039 42.336C302.74 42.3787 302.42 42.4 302.079 42.4C301.183 42.4 300.372 42.272 299.647 42.016C298.964 41.76 298.324 41.4187 297.727 40.992L297.215 40.544L296.895 41.184C296.596 41.9947 296.383 42.6773 296.255 43.232C296.17 43.7867 296.127 44.192 296.127 44.448C296.127 44.96 296.148 45.4933 296.191 46.048C296.234 46.56 296.362 46.9867 296.575 47.328C296.746 47.5413 296.959 47.712 297.215 47.84C297.514 47.968 297.876 48.032 298.303 48.032C298.559 48.032 298.794 48.032 299.007 48.032C299.263 47.9893 299.476 47.9467 299.647 47.904C300.415 47.7333 301.034 47.456 301.503 47.072C302.015 46.6453 302.548 46.2827 303.103 45.984L303.359 45.856L303.295 45.664C304.02 45.28 304.511 45.0453 304.767 44.96C305.023 44.832 305.215 44.7253 305.343 44.64C305.514 44.4693 305.706 44.384 305.919 44.384C306.516 44.2987 307.092 44.4693 307.647 44.896C308.244 45.28 308.543 45.7707 308.543 46.368C308.543 46.624 308.351 47.0293 307.967 47.584C307.626 48.1387 307.178 48.6933 306.623 49.248C306.111 49.76 305.578 50.1653 305.023 50.464C304.895 50.5067 304.767 50.5707 304.639 50.656C304.511 50.6987 304.383 50.7627 304.255 50.848H304.319C303.935 51.36 303.551 51.616 303.167 51.616H302.655C302.484 51.9147 301.93 52.2347 300.991 52.576C300.052 52.96 299.135 53.152 298.239 53.152ZM301.567 37.728C301.951 37.728 302.292 37.664 302.591 37.536C302.932 37.408 303.252 37.2587 303.551 37.088C304.575 36.3627 305.236 35.424 305.535 34.272C305.834 33.12 305.727 32.2453 305.215 31.648C305.13 31.52 305.023 31.4347 304.895 31.392C304.767 31.3067 304.618 31.264 304.447 31.264C303.978 31.264 303.444 31.4133 302.847 31.712C302.292 32.0107 301.738 32.4373 301.183 32.992C300.628 33.5467 300.116 34.208 299.647 34.976L298.815 36.32C298.9 36.2773 298.964 36.256 299.007 36.256C299.092 36.2133 299.156 36.192 299.199 36.192C299.583 36.192 299.839 36.32 299.967 36.576C300.095 36.832 300.244 37.088 300.415 37.344C300.628 37.6 301.012 37.728 301.567 37.728Z" fill="#03A9F4"/>
<path d="M333.834 54.624C333.535 54.1547 333.023 53.856 332.298 53.728C331.573 53.6 330.463 53.5787 328.97 53.664C328.373 53.7493 327.754 53.7067 327.114 53.536C326.474 53.3653 325.962 53.1093 325.578 52.768C325.194 52.4267 325.045 52.0853 325.13 51.744C325.173 51.232 325.77 50.6773 326.922 50.08C328.074 49.4827 329.567 49.1627 331.402 49.12L334.09 49.056L334.73 47.776C334.901 47.3067 335.029 46.7947 335.114 46.24C335.242 45.6853 335.455 44.9173 335.754 43.936C335.925 43.3387 336.181 42.5067 336.522 41.44C336.863 40.3733 337.226 39.2427 337.61 38.048C337.994 36.8107 338.335 35.7013 338.634 34.72C338.933 33.7387 339.125 33.056 339.21 32.672C339.381 32.288 339.615 31.648 339.914 30.752C340.213 29.8133 340.49 28.8747 340.746 27.936C341.045 26.9547 341.237 26.2507 341.322 25.824C342.431 22.4533 343.157 20.1067 343.498 18.784C343.839 17.4187 343.925 16.7147 343.754 16.672C343.583 16.672 343.178 16.6933 342.538 16.736C341.898 16.7787 341.194 16.8427 340.426 16.928C339.658 16.9707 338.975 17.0347 338.378 17.12C337.781 17.2053 337.418 17.2907 337.29 17.376C337.077 17.6747 336.714 17.632 336.202 17.248C335.69 16.8213 335.37 16.3947 335.242 15.968C335.199 15.584 335.199 15.2213 335.242 14.88C335.285 14.5387 335.413 14.304 335.626 14.176C335.925 13.92 336.543 13.6427 337.482 13.344C338.421 13.0027 339.466 12.704 340.618 12.448C341.813 12.192 342.901 12 343.882 11.872C344.607 11.7867 345.333 11.6373 346.058 11.424C346.783 11.168 347.359 10.8693 347.786 10.528C348.17 10.4 348.533 10.2933 348.874 10.208C349.258 10.1227 349.642 10.1013 350.026 10.144C350.367 10.3573 350.943 10.464 351.754 10.464C352.607 10.464 353.503 10.4427 354.442 10.4C356.831 10.1867 358.495 10.272 359.434 10.656C360.415 10.9973 361.055 11.4667 361.354 12.064C361.567 12.8747 361.525 13.5573 361.226 14.112C360.927 14.624 360.415 14.8587 359.69 14.816C359.306 14.9013 358.773 14.9867 358.09 15.072C357.407 15.1147 356.511 15.1573 355.402 15.2C352.586 15.456 351.071 15.7547 350.858 16.096C350.687 16.2667 350.538 16.4373 350.41 16.608C350.325 16.7787 350.197 16.9707 350.026 17.184C350.069 17.3547 349.962 17.8667 349.706 18.72C349.493 19.5307 349.215 20.4053 348.874 21.344C348.703 21.8987 348.447 22.688 348.106 23.712C347.765 24.736 347.402 25.8027 347.018 26.912C346.677 27.9787 346.357 28.96 346.058 29.856C345.759 30.7093 345.546 31.2853 345.418 31.584C345.247 31.968 345.098 32.3947 344.97 32.864C344.885 33.2907 344.821 33.6107 344.778 33.824C344.181 35.9147 343.669 37.664 343.242 39.072C342.858 40.48 342.517 41.7173 342.218 42.784C341.919 43.808 341.642 44.8107 341.386 45.792C341.13 46.7307 340.831 47.7973 340.49 48.992C340.49 48.992 340.853 48.9707 341.578 48.928C342.303 48.8427 343.221 48.7573 344.33 48.672C346.335 48.4587 347.701 48.3307 348.426 48.288C349.151 48.2453 349.578 48.3093 349.706 48.48C349.834 48.608 349.962 48.864 350.09 49.248C350.943 50.4 350.879 51.36 349.898 52.128C348.959 52.896 347.295 53.2587 344.906 53.216C342.687 53.3013 341.045 53.3653 339.978 53.408C338.954 53.4933 338.293 53.6 337.994 53.728C337.695 53.856 337.546 54.0693 337.546 54.368C337.589 55.0507 337.162 55.456 336.266 55.584C335.413 55.7547 334.602 55.4347 333.834 54.624Z" fill="#03A9F4"/>
<path d="M363.158 52.384C362.56 52.2133 361.963 51.9147 361.365 51.488C360.768 51.0613 360.15 50.5707 359.51 50.016C358.998 49.3333 358.635 48.7147 358.421 48.16C358.208 47.5627 358.08 46.88 358.037 46.112C358.037 45.3013 358.037 44.2773 358.037 43.04C358.037 42.528 358.123 41.8027 358.294 40.864C358.507 39.9253 358.72 38.944 358.934 37.92C359.19 36.896 359.424 36 359.637 35.232C359.851 34.4213 359.979 33.888 360.021 33.632C360.149 33.0773 359.936 32.7573 359.382 32.672C358.827 32.5867 358.208 32.5653 357.525 32.608C356.885 32.608 356.459 32.544 356.245 32.416C356.075 32.3733 355.99 32.16 355.99 31.776C355.99 31.3493 355.99 31.136 355.99 31.136C355.99 30.9653 355.904 30.8587 355.734 30.816C355.563 30.7307 355.414 30.5813 355.286 30.368C355.2 30.1973 355.307 29.8773 355.606 29.408C355.904 28.9387 356.288 28.6613 356.757 28.576C357.141 28.4907 357.717 28.4267 358.485 28.384C359.253 28.2987 360.022 28.1493 360.79 27.936C361.6 27.68 362.219 27.296 362.645 26.784C363.029 25.8453 363.456 24.8427 363.925 23.776C364.395 22.6667 364.843 21.7067 365.27 20.896C365.696 20.0427 365.995 19.5093 366.166 19.296C366.891 18.912 367.638 18.7627 368.406 18.848C369.174 18.8907 369.771 19.2533 370.197 19.936C370.411 20.2347 370.582 20.448 370.71 20.576C370.88 20.704 370.944 20.896 370.902 21.152C370.902 21.408 370.731 21.8773 370.39 22.56C370.091 23.2 369.579 24.2027 368.854 25.568C368.64 25.9947 368.448 26.3787 368.278 26.72C368.107 27.0187 368.021 27.168 368.021 27.168C368.192 27.2107 368.448 27.232 368.79 27.232C369.131 27.232 369.558 27.2107 370.07 27.168C370.539 27.0827 371.051 27.0187 371.606 26.976C372.16 26.8907 372.651 26.8907 373.077 26.976C374.059 26.976 374.784 27.2533 375.253 27.808C375.723 28.3627 375.979 29.0667 376.021 29.92C376.107 30.3893 375.936 30.7947 375.51 31.136C375.083 31.4773 374.293 31.648 373.141 31.648C372.757 31.648 372.203 31.6693 371.477 31.712C370.752 31.7547 370.006 31.7973 369.238 31.84C368.47 31.8827 367.808 31.9467 367.253 32.032C366.741 32.0747 366.485 32.1387 366.485 32.224C366.357 32.3093 366.144 32.6507 365.846 33.248C365.59 33.8027 365.312 34.4853 365.014 35.296C364.758 36.1067 364.523 36.8747 364.309 37.6C364.011 39.0507 363.798 40.4587 363.67 41.824C363.542 43.1893 363.52 44.384 363.606 45.408C363.734 46.3893 363.989 47.0933 364.373 47.52C364.757 47.904 365.334 47.904 366.102 47.52C366.912 47.0933 367.659 46.6027 368.342 46.048C369.11 45.408 369.771 45.216 370.326 45.472C370.88 45.6853 371.222 46.1547 371.35 46.88C371.52 47.5627 371.328 48.3093 370.774 49.12C370.262 49.9307 369.536 50.6133 368.598 51.168C367.659 51.7227 366.699 52.1067 365.718 52.32C364.736 52.576 363.883 52.5973 363.158 52.384Z" fill="#03A9F4"/>
<path d="M383.577 24.224C383.15 24.2667 382.617 24.2667 381.977 24.224C381.38 24.1813 381.017 23.776 380.889 23.008C380.846 22.7093 380.889 22.432 381.017 22.176C381.145 21.92 381.316 21.6427 381.529 21.344C382.041 20.4907 382.617 19.552 383.257 18.528C383.94 17.504 384.388 16.672 384.601 16.032C384.601 15.8613 384.622 15.712 384.665 15.584C383.94 15.712 383.193 15.456 382.425 14.816C381.614 14.048 381.38 13.0453 381.721 11.808C382.105 10.528 382.852 9.504 383.961 8.736C384.729 8.26667 385.454 8.01067 386.137 7.968C386.82 7.92533 387.545 8.07467 388.313 8.416C389.038 8.84267 389.636 9.504 390.105 10.4C390.574 11.2533 390.702 11.9573 390.489 12.512C390.361 13.4933 390.126 14.4107 389.785 15.264C389.486 16.1173 389.209 16.9493 388.953 17.76C388.697 18.6987 388.164 19.7013 387.353 20.768C386.585 21.792 385.838 22.7307 385.113 23.584C385.156 23.7547 385.028 23.8613 384.729 23.904C384.43 23.9467 384.046 24.0533 383.577 24.224Z" fill="#03A9F4"/>
<path d="M386.917 52.384C385.466 51.7867 384.4 51.168 383.717 50.528C383.077 49.8453 382.821 49.248 382.949 48.736C383.034 48.48 383.184 48.2453 383.397 48.032C383.61 47.8187 384.08 47.7333 384.805 47.776C385.573 47.776 386.746 47.968 388.325 48.352C388.794 48.352 389.264 48.3307 389.733 48.288C390.202 48.2453 390.629 48.1813 391.013 48.096C391.44 48.0107 391.781 47.904 392.037 47.776C392.25 47.6907 392.314 47.584 392.229 47.456C392.144 47.2853 391.994 47.1147 391.781 46.944C391.61 46.7307 391.418 46.6027 391.205 46.56C390.992 46.4747 390.8 46.432 390.629 46.432C390.544 46.2187 390.352 46.0053 390.053 45.792C389.797 45.5787 389.477 45.344 389.093 45.088C388.154 44.32 387.301 43.6373 386.533 43.04C385.765 42.4427 385.466 41.9947 385.637 41.696C385.637 41.5253 385.637 41.44 385.637 41.44C385.637 41.3973 385.637 41.376 385.637 41.376C385.338 41.376 385.061 40.9707 384.805 40.16C384.549 39.3067 384.421 38.5387 384.421 37.856C384.421 37.0027 384.592 36.1493 384.933 35.296C385.317 34.4427 385.786 33.632 386.341 32.864C386.938 32.096 387.536 31.4133 388.133 30.816C388.944 30.048 389.797 29.3013 390.693 28.576C391.632 27.808 392.634 27.1253 393.701 26.528C394.81 25.9307 396.026 25.4613 397.349 25.12C397.946 24.992 398.629 24.928 399.397 24.928C400.165 24.928 400.72 25.0347 401.061 25.248C401.402 25.0347 401.829 25.0987 402.341 25.44C402.853 25.7387 403.365 26.1653 403.877 26.72C404.389 27.2747 404.773 27.8293 405.029 28.384C405.029 28.896 405.008 29.536 404.965 30.304C404.965 31.0293 404.922 31.6693 404.837 32.224C404.752 32.7787 404.56 33.056 404.261 33.056C404.261 33.056 404.197 33.0773 404.069 33.12C403.984 33.12 403.941 33.2267 403.941 33.44C403.941 33.8667 403.621 34.3573 402.981 34.912C402.17 35.4667 401.402 35.9147 400.677 36.256C399.952 36.5973 399.397 36.6187 399.013 36.32C398.757 36.1493 398.522 35.9787 398.309 35.808C398.096 35.6373 397.904 35.424 397.733 35.168C397.733 35.168 397.669 35.0827 397.541 34.912C397.456 34.6987 397.413 34.5067 397.413 34.336C397.413 34.1653 397.477 34.016 397.605 33.888C397.733 33.7173 397.797 33.632 397.797 33.632C398.394 33.0773 398.842 32.5653 399.141 32.096C399.482 31.6267 399.717 31.2213 399.845 30.88C399.973 30.496 400.037 30.1973 400.037 29.984C400.037 29.728 399.973 29.5787 399.845 29.536C399.76 29.4507 399.546 29.408 399.205 29.408C398.992 29.408 398.522 29.5787 397.797 29.92C397.114 30.2613 396.389 30.688 395.621 31.2C394.853 31.6693 394.256 32.096 393.829 32.48C393.658 32.7787 393.53 32.9707 393.445 33.056C393.402 33.1413 393.296 33.184 393.125 33.184C393.125 33.0133 393.018 33.0347 392.805 33.248C392.592 33.4613 392.336 33.76 392.037 34.144C391.738 34.528 391.44 34.9333 391.141 35.36C390.842 35.7867 390.608 36.128 390.437 36.384C390.394 36.768 390.288 37.1307 390.117 37.472C389.989 37.7707 389.946 38.0907 389.989 38.432C390.032 38.8587 390.245 39.264 390.629 39.648C391.013 40.032 391.568 40.5227 392.293 41.12C393.786 42.2293 394.896 43.104 395.621 43.744C396.389 44.384 396.922 44.896 397.221 45.28C397.52 45.664 397.712 46.048 397.797 46.432C398.522 47.7547 398.608 48.9067 398.053 49.888C397.498 50.8267 396.645 51.552 395.493 52.064C395.066 52.2773 394.32 52.4693 393.253 52.64C392.186 52.8533 391.056 52.9387 389.861 52.896C388.709 52.896 387.728 52.7253 386.917 52.384Z" fill="#03A9F4"/>
<path d="M428.53 59V14.31L419.1 17.59L415 8.16L430.17 1.6H443.29V59H428.53Z" fill="#FFC107"/>
<path d="M453.972 47.11C465.234 47.93 473.16 48.34 477.752 48.34C479.01 48.34 479.994 47.9847 480.704 47.274C481.47 46.5087 481.852 45.4973 481.852 44.24V36.86C476.55 37.9533 471.903 38.5 467.912 38.5H462.172C458.455 38.5 455.476 37.3793 453.234 35.138C450.993 32.8967 449.872 29.9173 449.872 26.2V15.54C449.872 10.5653 451.13 6.87533 453.644 4.47C456.159 2.01 460.095 0.779999 465.452 0.779999H481.032C486.39 0.779999 490.326 2.01 492.84 4.47C495.355 6.87533 496.612 10.5653 496.612 15.54V44.24C496.612 49.5973 495.355 53.5333 492.84 56.048C490.326 58.5627 486.39 59.82 481.032 59.82C473.543 59.82 464.523 59.2733 453.972 58.18V47.11ZM472.012 27.02C475.128 27.02 478.408 26.7467 481.852 26.2V17.18C481.852 13.9 480.212 12.26 476.932 12.26H469.552C466.272 12.26 464.632 13.9 464.632 17.18V24.15C464.632 24.97 464.906 25.6533 465.452 26.2C465.999 26.7467 466.682 27.02 467.502 27.02H472.012Z" fill="#FFC107"/>
<path d="M522.023 36.04C518.743 36.04 517.103 37.68 517.103 40.96V44.24C517.103 45.4973 517.458 46.5087 518.169 47.274C518.934 47.9847 519.946 48.34 521.203 48.34H533.503C534.76 48.34 535.744 47.9847 536.455 47.274C537.22 46.5087 537.603 45.4973 537.603 44.24V40.96C537.603 37.68 535.963 36.04 532.683 36.04H522.023ZM523.663 12.26C520.383 12.26 518.743 13.9 518.743 17.18V19.64C518.743 22.92 520.383 24.56 523.663 24.56H531.043C534.323 24.56 535.963 22.92 535.963 19.64V17.18C535.963 13.9 534.323 12.26 531.043 12.26H523.663ZM552.363 44.24C552.363 49.5973 551.106 53.5333 548.591 56.048C546.076 58.5627 542.14 59.82 536.783 59.82H517.923C512.565 59.82 508.629 58.5627 506.115 56.048C503.6 53.5333 502.343 49.5973 502.343 44.24V43.42C502.343 39.2653 503.381 35.8213 505.459 33.088C507.099 30.9013 509.34 29.4253 512.183 28.66C509.723 27.84 507.727 26.4187 506.197 24.396C504.721 22.3187 503.983 19.64 503.983 16.36V15.54C503.983 10.5653 505.24 6.87533 507.755 4.47C510.269 2.01 514.205 0.779999 519.563 0.779999H535.143C540.5 0.779999 544.436 2.01 546.951 4.47C549.465 6.87533 550.723 10.5653 550.723 15.54V16.36C550.723 19.64 549.958 22.3187 548.427 24.396C546.951 26.4187 544.983 27.84 542.523 28.66C546.951 29.8627 549.957 32.8147 551.543 37.516C552.089 39.2107 552.363 41.1787 552.363 43.42V44.24Z" fill="#FFC107"/>
<path d="M584.336 15.54H600.326L587.206 37.27L600.736 59H584.746L577.366 45.88L569.986 59H553.996L567.526 37.27L554.406 15.54H570.396L577.366 28.66L584.336 15.54Z" fill="#FFC107"/>
</svg>
