<svg width="100" height="124" viewBox="0 0 100 124" fill="none" xmlns="http://www.w3.org/2000/svg">
<path d="M19.5886 59V14.31L10.1586 17.59L6.05859 8.16L21.2286 1.6H34.3486V59H19.5886ZM45.031 47.11C56.2924 47.93 64.219 48.34 68.811 48.34C70.0684 48.34 71.0524 47.9847 71.763 47.274C72.5284 46.5087 72.911 45.4973 72.911 44.24V36.86C67.6084 37.9533 62.9617 38.5 58.971 38.5H53.231C49.5137 38.5 46.5343 37.3793 44.293 35.138C42.0517 32.8967 40.931 29.9173 40.931 26.2V15.54C40.931 10.5653 42.1883 6.87533 44.703 4.47C47.2177 2.01 51.1537 0.779997 56.511 0.779997H72.091C77.4484 0.779997 81.3844 2.01 83.899 4.47C86.4137 6.87533 87.671 10.5653 87.671 15.54V44.24C87.671 49.5973 86.4137 53.5333 83.899 56.048C81.3844 58.5627 77.4484 59.82 72.091 59.82C64.6017 59.82 55.5817 59.2733 45.031 58.18V47.11ZM63.071 27.02C66.187 27.02 69.467 26.7467 72.911 26.2V17.18C72.911 13.9 71.271 12.26 67.991 12.26H60.611C57.331 12.26 55.691 13.9 55.691 17.18V24.15C55.691 24.97 55.9643 25.6533 56.511 26.2C57.0577 26.7467 57.741 27.02 58.561 27.02H63.071Z" fill="#F44336"/>
<path d="M20.6312 100.04C17.3512 100.04 15.7112 101.68 15.7112 104.96V108.24C15.7112 109.497 16.0665 110.509 16.7772 111.274C17.5425 111.985 18.5539 112.34 19.8112 112.34H32.1112C33.3685 112.34 34.3525 111.985 35.0632 111.274C35.8285 110.509 36.2112 109.497 36.2112 108.24V104.96C36.2112 101.68 34.5712 100.04 31.2912 100.04H20.6312ZM22.2712 76.26C18.9912 76.26 17.3512 77.9 17.3512 81.18V83.64C17.3512 86.92 18.9912 88.56 22.2712 88.56H29.6512C32.9312 88.56 34.5712 86.92 34.5712 83.64V81.18C34.5712 77.9 32.9312 76.26 29.6512 76.26H22.2712ZM50.9712 108.24C50.9712 113.597 49.7139 117.533 47.1992 120.048C44.6845 122.563 40.7485 123.82 35.3912 123.82H16.5312C11.1739 123.82 7.23788 122.563 4.72321 120.048C2.20854 117.533 0.951211 113.597 0.951211 108.24V107.42C0.951211 103.265 1.98988 99.8213 4.06721 97.088C5.70721 94.9013 7.94854 93.4253 10.7912 92.66C8.33121 91.84 6.33588 90.4187 4.80521 88.396C3.32921 86.3187 2.59121 83.64 2.59121 80.36V79.54C2.59121 74.5653 3.84854 70.8753 6.36321 68.47C8.87788 66.01 12.8139 64.78 18.1712 64.78H33.7512C39.1085 64.78 43.0445 66.01 45.5592 68.47C48.0739 70.8753 49.3312 74.5653 49.3312 79.54V80.36C49.3312 83.64 48.5659 86.3187 47.0352 88.396C45.5592 90.4187 43.5912 91.84 41.1312 92.66C45.5592 93.8627 48.5659 96.8147 50.1512 101.516C50.6979 103.211 50.9712 105.179 50.9712 107.42V108.24ZM82.9448 79.54H98.9348L85.8148 101.27L99.3448 123H83.3548L75.9748 109.88L68.5948 123H52.6048L66.1348 101.27L53.0148 79.54H69.0048L75.9748 92.66L82.9448 79.54Z" fill="#FFC107"/>
</svg>
