<svg width="193" height="230" viewBox="0 0 193 230" fill="none" xmlns="http://www.w3.org/2000/svg">
<path d="M4.896 53.328V28.992C4.896 20.544 9.12 16.32 17.568 16.32H36.216L41.832 20.64V27.624H18.216C17.688 27.624 17.424 27.888 17.424 28.416V53.904C17.424 54.432 17.688 54.696 18.216 54.696H41.832V61.68L36.216 66H17.568C9.12 66 4.896 61.776 4.896 53.328ZM50.3179 53.328V28.992C50.3179 20.544 54.5419 16.32 62.9899 16.32H79.1179C87.5659 16.32 91.7899 20.544 91.7899 28.992V53.328C91.7899 61.776 87.5659 66 79.1179 66H62.9899C54.5419 66 50.3179 61.776 50.3179 53.328ZM62.8459 53.904C62.8459 54.432 63.1099 54.696 63.6379 54.696H78.4699C78.9979 54.696 79.2619 54.432 79.2619 53.904V28.416C79.2619 27.888 78.9979 27.624 78.4699 27.624H63.6379C63.1099 27.624 62.8459 27.888 62.8459 28.416V53.904ZM102.296 66V16.32H120.872C135.176 16.32 142.328 23.472 142.328 37.776V44.544C142.328 58.848 135.176 66 120.872 66H102.296ZM114.824 54.696H121.592C127.064 54.696 129.8 51.936 129.8 46.416V35.904C129.8 30.384 127.064 27.624 121.592 27.624H114.824V54.696ZM152.147 66V16.32H186.923V27.624H164.675V35.04H184.763V46.344H164.675V54.696H186.923V66H152.147Z" fill="#F44336"/>
<path d="M19.416 131.904C17.7093 131.477 16.3227 130.581 15.256 129.216C14.232 127.893 13.4 126.293 12.76 124.416C12.7173 123.861 12.696 123.093 12.696 122.112C12.7387 121.131 12.8027 120.213 12.888 119.36C12.9733 118.507 13.0587 118.016 13.144 117.888C13.272 117.803 13.336 117.547 13.336 117.12C13.2933 116.949 13.3147 116.672 13.4 116.288C13.528 115.861 13.656 115.435 13.784 115.008C13.9973 114.496 14.104 114.091 14.104 113.792C14.104 113.451 14.0827 113.195 14.04 113.024C14.04 113.024 14.104 112.896 14.232 112.64C14.36 112.341 14.5093 112.107 14.68 111.936C14.936 111.68 15.0427 111.424 15 111.168C15 110.912 15 110.784 15 110.784C14.9573 110.613 15 110.379 15.128 110.08C15.256 109.781 15.384 109.547 15.512 109.376C15.5973 109.291 15.704 109.12 15.832 108.864C16.0027 108.565 16.088 108.416 16.088 108.416C16.088 108.288 16.1733 107.947 16.344 107.392C16.5573 106.837 16.792 106.24 17.048 105.6C17.304 104.917 17.5387 104.299 17.752 103.744C18.008 103.189 18.2 102.827 18.328 102.656V102.528C18.4987 102.101 18.7333 101.653 19.032 101.184C19.0747 100.971 19.1813 100.629 19.352 100.16C19.5227 99.648 19.7147 99.1573 19.928 98.688C20.3973 97.664 20.9733 96.512 21.656 95.232C22.3813 93.9093 23.1493 92.608 23.96 91.328C24.7707 90.0053 25.5387 88.832 26.264 87.808C27.032 86.7413 27.6933 85.952 28.248 85.44C28.9733 84.6293 29.6987 84.0533 30.424 83.712C31.192 83.328 31.896 83.456 32.536 84.096C32.8347 84.3947 33.0907 84.8427 33.304 85.44C33.5173 85.9947 33.6027 86.528 33.56 87.04C33.56 87.5093 33.3893 87.7653 33.048 87.808C32.7493 87.9787 32.344 88.4693 31.832 89.28C31.32 90.048 30.744 90.9653 30.104 92.032C29.5067 93.0987 28.9093 94.208 28.312 95.36C27.7147 96.4693 27.16 97.472 26.648 98.368C26.0933 99.6053 25.5813 100.693 25.112 101.632C24.6427 102.528 24.408 102.976 24.408 102.976C24.3653 103.104 24.3227 103.211 24.28 103.296C24.2373 103.381 24.1947 103.467 24.152 103.552C23.512 104.875 22.9787 106.091 22.552 107.2C22.1253 108.267 21.6987 109.397 21.272 110.592C21.016 110.891 20.8667 111.189 20.824 111.488C20.7813 111.787 20.76 111.936 20.76 111.936C20.6747 111.893 20.6107 112 20.568 112.256C20.5253 112.469 20.44 112.725 20.312 113.024C20.0987 113.195 19.9707 113.472 19.928 113.856C19.8853 114.197 19.864 114.539 19.864 114.88C19.5653 115.648 19.288 116.587 19.032 117.696C18.776 118.763 18.584 119.808 18.456 120.832C18.3707 121.813 18.3493 122.581 18.392 123.136C18.4773 123.861 18.6693 124.48 18.968 124.992C19.3093 125.461 19.7787 125.845 20.376 126.144C20.8453 126.357 21.272 126.549 21.656 126.72C22.04 126.848 22.3813 126.912 22.68 126.912C23.0213 126.955 23.448 126.955 23.96 126.912C24.5147 126.827 25.2613 126.699 26.2 126.528H26.136C26.6907 126.443 27.2667 126.336 27.864 126.208C28.504 126.037 29.1013 125.888 29.656 125.76C30.168 125.675 30.6587 125.589 31.128 125.504C31.5973 125.376 31.96 125.269 32.216 125.184C33.1547 124.928 33.9013 124.715 34.456 124.544C35.0533 124.373 35.4587 124.373 35.672 124.544C35.8853 124.715 36.12 125.035 36.376 125.504C36.632 125.973 36.696 126.4 36.568 126.784C36.4827 126.997 36.056 127.424 35.288 128.064C34.52 128.747 33.6453 129.408 32.664 130.048C31.6827 130.731 30.7867 131.2 29.976 131.456C29.1227 131.84 27.9707 132.096 26.52 132.224C25.112 132.395 23.7467 132.437 22.424 132.352C21.1013 132.267 20.0987 132.117 19.416 131.904ZM41.467 126.912C41.1257 126.571 40.8697 126.059 40.699 125.376C40.571 124.693 40.5283 124.032 40.571 123.392C40.6137 122.709 40.7203 122.197 40.891 121.856C40.891 121.515 40.9337 121.259 41.019 121.088C41.147 120.875 41.1897 120.683 41.147 120.512C41.1043 120.341 41.147 120.043 41.275 119.616C41.403 119.189 41.531 118.784 41.659 118.4C41.9577 117.717 42.299 116.843 42.683 115.776C43.067 114.667 43.451 113.557 43.835 112.448C44.219 111.296 44.539 110.315 44.795 109.504C45.051 108.651 45.2003 108.139 45.243 107.968C45.243 107.456 45.5843 107.179 46.267 107.136C46.779 106.965 47.3977 107.179 48.123 107.776C48.8483 108.373 49.4243 109.013 49.851 109.696C50.1923 110.037 50.3203 110.485 50.235 111.04C50.1497 111.595 49.8723 112.384 49.403 113.408C49.2323 113.749 49.019 114.325 48.763 115.136C48.5497 115.904 48.4003 116.544 48.315 117.056C48.1443 117.397 47.931 117.888 47.675 118.528C47.4617 119.125 47.2697 119.701 47.099 120.256C47.0137 120.469 46.9283 120.875 46.843 121.472C46.7577 122.027 46.651 122.603 46.523 123.2C46.395 123.797 46.2243 124.267 46.011 124.608C45.627 126.357 44.9443 127.381 43.963 127.68C43.0243 127.979 42.1923 127.723 41.467 126.912ZM48.379 101.248C47.9097 100.907 47.547 100.501 47.291 100.032C47.0777 99.52 46.9497 99.072 46.907 98.688C46.907 98.304 46.9497 98.0693 47.035 97.984C47.4617 97.5147 47.8243 96.896 48.123 96.128C48.4643 95.36 48.827 94.656 49.211 94.016C49.2963 93.888 49.403 93.7173 49.531 93.504C49.7017 93.248 49.8723 93.0987 50.043 93.056C50.555 92.7147 51.259 92.736 52.155 93.12C53.0937 93.504 53.7763 94.0373 54.203 94.72C54.587 95.5307 54.6937 96.3627 54.523 97.216C54.395 98.0693 53.947 98.9653 53.179 99.904C52.539 100.757 51.7283 101.312 50.747 101.568C49.7657 101.781 48.9763 101.675 48.379 101.248ZM55.6295 128.192C55.2882 128.064 54.8402 127.723 54.2855 127.168C53.7308 126.571 53.2402 125.931 52.8135 125.248C52.3868 124.523 52.1735 123.925 52.1735 123.456C52.3868 122.987 52.6642 122.155 53.0055 120.96C53.3895 119.765 53.8162 118.421 54.2855 116.928C54.6268 116.459 54.8828 115.925 55.0535 115.328C55.2668 114.688 55.4588 114.112 55.6295 113.6C55.9708 112.832 56.3548 111.957 56.7815 110.976C57.2082 109.995 57.6135 108.992 57.9975 107.968C58.4242 106.944 58.8082 106.048 59.1495 105.28C59.7468 104 60.2375 102.891 60.6215 101.952C61.0482 100.971 61.4535 100.011 61.8375 99.072C62.2642 98.1333 62.7122 97.088 63.1815 95.936C63.8215 94.6133 64.3975 93.312 64.9095 92.032C65.4642 90.7093 65.9335 89.536 66.3175 88.512C66.7442 87.488 67.0002 86.7627 67.0855 86.336C67.0428 85.9947 67.0855 85.76 67.2135 85.632C67.3415 85.4613 67.5122 85.3547 67.7255 85.312C67.9388 85.184 68.2802 85.0987 68.7495 85.056C69.2188 85.0133 69.5388 84.992 69.7095 84.992C70.2215 85.0773 70.7335 85.504 71.2455 86.272C71.8002 86.9973 72.0775 87.616 72.0775 88.128C72.0775 88.8107 71.7362 90.0907 71.0535 91.968C70.4135 93.8027 69.4748 95.9787 68.2375 98.496C66.7442 101.696 65.6135 104.171 64.8455 105.92C64.1202 107.669 63.6295 108.907 63.3735 109.632C63.1175 110.357 63.0108 110.827 63.0535 111.04C63.0535 111.04 63.2242 110.976 63.5655 110.848C63.9068 110.72 64.4188 110.421 65.1015 109.952C65.5708 109.653 66.1042 109.269 66.7015 108.8C67.2988 108.331 67.8748 107.904 68.4295 107.52C69.0268 107.136 69.4962 106.901 69.8375 106.816C70.0508 106.645 70.3495 106.432 70.7335 106.176C71.1175 105.92 71.4802 105.685 71.8215 105.472C72.6322 104.875 73.2722 104.683 73.7415 104.896C74.2108 105.109 74.6375 105.472 75.0215 105.984C75.4908 106.539 75.6615 107.136 75.5335 107.776C75.4482 108.373 74.7868 109.163 73.5495 110.144C72.6108 110.827 71.6082 111.488 70.5415 112.128C69.4748 112.725 68.4935 113.259 67.5975 113.728C66.7442 114.197 66.1255 114.581 65.7415 114.88C65.7415 114.88 65.9335 115.157 66.3175 115.712C66.7015 116.267 67.0642 116.8 67.4055 117.312C67.7468 117.995 68.1735 118.869 68.6855 119.936C69.1975 120.96 69.5815 121.685 69.8375 122.112C70.3068 122.795 70.7762 123.243 71.2455 123.456C71.7575 123.669 72.5042 123.605 73.4855 123.264C74.1255 123.093 74.6588 123.115 75.0855 123.328C75.5548 123.499 75.9388 123.797 76.2375 124.224C76.4082 124.565 76.4935 124.907 76.4935 125.248C76.4935 125.589 76.2162 125.995 75.6615 126.464C74.4668 127.275 73.2935 127.957 72.1415 128.512C71.0322 129.109 69.9655 129.067 68.9415 128.384C68.0455 127.701 67.1922 126.933 66.3815 126.08C65.6135 125.184 64.7388 124.096 63.7575 122.816C63.7575 122.645 63.6295 122.283 63.3735 121.728C63.1175 121.173 62.9468 120.853 62.8615 120.768C62.6908 120.427 62.4988 120.128 62.2855 119.872C62.1148 119.573 62.0295 119.424 62.0295 119.424C61.9015 118.955 61.7308 118.571 61.5175 118.272C61.3468 117.973 61.1122 117.803 60.8135 117.76C60.6428 117.888 60.4508 118.101 60.2375 118.4C60.0242 118.699 59.8108 119.061 59.5975 119.488C59.3415 120.128 59.0855 120.768 58.8295 121.408C58.5735 122.005 58.3602 122.667 58.1895 123.392C58.0188 124.075 57.9122 124.907 57.8695 125.888C57.9122 126.357 57.7202 126.869 57.2935 127.424C56.8668 127.936 56.3122 128.192 55.6295 128.192ZM84.239 129.152C81.8923 129.152 80.079 128.469 78.799 127.104C77.5617 125.739 76.943 123.648 76.943 120.832C76.943 119.296 77.2203 117.611 77.775 115.776C78.3723 113.941 79.1403 112.149 80.079 110.4C81.0603 108.651 82.127 107.136 83.279 105.856C84.431 104.533 85.583 103.616 86.735 103.104C87.1617 102.891 87.6097 102.741 88.079 102.656C88.591 102.528 89.0817 102.464 89.551 102.464C90.063 102.464 90.6177 102.507 91.215 102.592C91.855 102.635 92.4523 102.763 93.007 102.976C93.9883 103.275 94.8417 103.851 95.567 104.704C96.335 105.557 96.719 106.795 96.719 108.416C96.719 108.843 96.6763 109.312 96.591 109.824C96.5057 110.293 96.3563 110.763 96.143 111.232C95.5883 112.64 94.735 113.984 93.583 115.264C92.4737 116.544 91.3003 117.44 90.063 117.952C89.7217 118.123 89.3803 118.251 89.039 118.336C88.7403 118.379 88.4203 118.4 88.079 118.4C87.183 118.4 86.3723 118.272 85.647 118.016C84.9643 117.76 84.3243 117.419 83.727 116.992L83.215 116.544L82.895 117.184C82.5963 117.995 82.383 118.677 82.255 119.232C82.1697 119.787 82.127 120.192 82.127 120.448C82.127 120.96 82.1483 121.493 82.191 122.048C82.2337 122.56 82.3617 122.987 82.575 123.328C82.7457 123.541 82.959 123.712 83.215 123.84C83.5137 123.968 83.8763 124.032 84.303 124.032C84.559 124.032 84.7937 124.032 85.007 124.032C85.263 123.989 85.4763 123.947 85.647 123.904C86.415 123.733 87.0337 123.456 87.503 123.072C88.015 122.645 88.5483 122.283 89.103 121.984L89.359 121.856L89.295 121.664C90.0203 121.28 90.511 121.045 90.767 120.96C91.023 120.832 91.215 120.725 91.343 120.64C91.5137 120.469 91.7057 120.384 91.919 120.384C92.5163 120.299 93.0923 120.469 93.647 120.896C94.2443 121.28 94.543 121.771 94.543 122.368C94.543 122.624 94.351 123.029 93.967 123.584C93.6257 124.139 93.1777 124.693 92.623 125.248C92.111 125.76 91.5777 126.165 91.023 126.464C90.895 126.507 90.767 126.571 90.639 126.656C90.511 126.699 90.383 126.763 90.255 126.848H90.319C89.935 127.36 89.551 127.616 89.167 127.616H88.655C88.4843 127.915 87.9297 128.235 86.991 128.576C86.0523 128.96 85.135 129.152 84.239 129.152ZM87.567 113.728C87.951 113.728 88.2923 113.664 88.591 113.536C88.9323 113.408 89.2523 113.259 89.551 113.088C90.575 112.363 91.2363 111.424 91.535 110.272C91.8337 109.12 91.727 108.245 91.215 107.648C91.1297 107.52 91.023 107.435 90.895 107.392C90.767 107.307 90.6177 107.264 90.447 107.264C89.9777 107.264 89.4443 107.413 88.847 107.712C88.2923 108.011 87.7377 108.437 87.183 108.992C86.6283 109.547 86.1163 110.208 85.647 110.976L84.815 112.32C84.9003 112.277 84.9643 112.256 85.007 112.256C85.0923 112.213 85.1563 112.192 85.199 112.192C85.583 112.192 85.839 112.32 85.967 112.576C86.095 112.832 86.2443 113.088 86.415 113.344C86.6283 113.6 87.0123 113.728 87.567 113.728ZM119.834 130.624C119.535 130.155 119.023 129.856 118.298 129.728C117.573 129.6 116.463 129.579 114.97 129.664C114.373 129.749 113.754 129.707 113.114 129.536C112.474 129.365 111.962 129.109 111.578 128.768C111.194 128.427 111.045 128.085 111.13 127.744C111.173 127.232 111.77 126.677 112.922 126.08C114.074 125.483 115.567 125.163 117.402 125.12L120.09 125.056L120.73 123.776C120.901 123.307 121.029 122.795 121.114 122.24C121.242 121.685 121.455 120.917 121.754 119.936C121.925 119.339 122.181 118.507 122.522 117.44C122.863 116.373 123.226 115.243 123.61 114.048C123.994 112.811 124.335 111.701 124.634 110.72C124.933 109.739 125.125 109.056 125.21 108.672C125.381 108.288 125.615 107.648 125.914 106.752C126.213 105.813 126.49 104.875 126.746 103.936C127.045 102.955 127.237 102.251 127.322 101.824C128.431 98.4533 129.157 96.1067 129.498 94.784C129.839 93.4187 129.925 92.7147 129.754 92.672C129.583 92.672 129.178 92.6933 128.538 92.736C127.898 92.7787 127.194 92.8427 126.426 92.928C125.658 92.9707 124.975 93.0347 124.378 93.12C123.781 93.2053 123.418 93.2907 123.29 93.376C123.077 93.6747 122.714 93.632 122.202 93.248C121.69 92.8213 121.37 92.3947 121.242 91.968C121.199 91.584 121.199 91.2213 121.242 90.88C121.285 90.5387 121.413 90.304 121.626 90.176C121.925 89.92 122.543 89.6427 123.482 89.344C124.421 89.0027 125.466 88.704 126.618 88.448C127.813 88.192 128.901 88 129.882 87.872C130.607 87.7867 131.333 87.6373 132.058 87.424C132.783 87.168 133.359 86.8693 133.786 86.528C134.17 86.4 134.533 86.2933 134.874 86.208C135.258 86.1227 135.642 86.1013 136.026 86.144C136.367 86.3573 136.943 86.464 137.754 86.464C138.607 86.464 139.503 86.4427 140.442 86.4C142.831 86.1867 144.495 86.272 145.434 86.656C146.415 86.9973 147.055 87.4667 147.354 88.064C147.567 88.8747 147.525 89.5573 147.226 90.112C146.927 90.624 146.415 90.8587 145.69 90.816C145.306 90.9013 144.773 90.9867 144.09 91.072C143.407 91.1147 142.511 91.1573 141.402 91.2C138.586 91.456 137.071 91.7547 136.858 92.096C136.687 92.2667 136.538 92.4373 136.41 92.608C136.325 92.7787 136.197 92.9707 136.026 93.184C136.069 93.3547 135.962 93.8667 135.706 94.72C135.493 95.5307 135.215 96.4053 134.874 97.344C134.703 97.8987 134.447 98.688 134.106 99.712C133.765 100.736 133.402 101.803 133.018 102.912C132.677 103.979 132.357 104.96 132.058 105.856C131.759 106.709 131.546 107.285 131.418 107.584C131.247 107.968 131.098 108.395 130.97 108.864C130.885 109.291 130.821 109.611 130.778 109.824C130.181 111.915 129.669 113.664 129.242 115.072C128.858 116.48 128.517 117.717 128.218 118.784C127.919 119.808 127.642 120.811 127.386 121.792C127.13 122.731 126.831 123.797 126.49 124.992C126.49 124.992 126.853 124.971 127.578 124.928C128.303 124.843 129.221 124.757 130.33 124.672C132.335 124.459 133.701 124.331 134.426 124.288C135.151 124.245 135.578 124.309 135.706 124.48C135.834 124.608 135.962 124.864 136.09 125.248C136.943 126.4 136.879 127.36 135.898 128.128C134.959 128.896 133.295 129.259 130.906 129.216C128.687 129.301 127.045 129.365 125.978 129.408C124.954 129.493 124.293 129.6 123.994 129.728C123.695 129.856 123.546 130.069 123.546 130.368C123.589 131.051 123.162 131.456 122.266 131.584C121.413 131.755 120.602 131.435 119.834 130.624ZM149.158 128.384C148.56 128.213 147.963 127.915 147.366 127.488C146.768 127.061 146.15 126.571 145.51 126.016C144.998 125.333 144.635 124.715 144.422 124.16C144.208 123.563 144.08 122.88 144.038 122.112C144.038 121.301 144.038 120.277 144.038 119.04C144.038 118.528 144.123 117.803 144.294 116.864C144.507 115.925 144.72 114.944 144.934 113.92C145.19 112.896 145.424 112 145.638 111.232C145.851 110.421 145.979 109.888 146.022 109.632C146.15 109.077 145.936 108.757 145.382 108.672C144.827 108.587 144.208 108.565 143.526 108.608C142.886 108.608 142.459 108.544 142.246 108.416C142.075 108.373 141.99 108.16 141.99 107.776C141.99 107.349 141.99 107.136 141.99 107.136C141.99 106.965 141.904 106.859 141.734 106.816C141.563 106.731 141.414 106.581 141.286 106.368C141.2 106.197 141.307 105.877 141.606 105.408C141.904 104.939 142.288 104.661 142.758 104.576C143.142 104.491 143.718 104.427 144.486 104.384C145.254 104.299 146.022 104.149 146.79 103.936C147.6 103.68 148.219 103.296 148.646 102.784C149.03 101.845 149.456 100.843 149.926 99.776C150.395 98.6667 150.843 97.7067 151.27 96.896C151.696 96.0427 151.995 95.5093 152.166 95.296C152.891 94.912 153.638 94.7627 154.406 94.848C155.174 94.8907 155.771 95.2533 156.198 95.936C156.411 96.2347 156.582 96.448 156.71 96.576C156.88 96.704 156.944 96.896 156.902 97.152C156.902 97.408 156.731 97.8773 156.39 98.56C156.091 99.2 155.579 100.203 154.854 101.568C154.64 101.995 154.448 102.379 154.278 102.72C154.107 103.019 154.022 103.168 154.022 103.168C154.192 103.211 154.448 103.232 154.79 103.232C155.131 103.232 155.558 103.211 156.07 103.168C156.539 103.083 157.051 103.019 157.606 102.976C158.16 102.891 158.651 102.891 159.078 102.976C160.059 102.976 160.784 103.253 161.254 103.808C161.723 104.363 161.979 105.067 162.022 105.92C162.107 106.389 161.936 106.795 161.51 107.136C161.083 107.477 160.294 107.648 159.142 107.648C158.758 107.648 158.203 107.669 157.478 107.712C156.752 107.755 156.006 107.797 155.238 107.84C154.47 107.883 153.808 107.947 153.253 108.032C152.742 108.075 152.486 108.139 152.486 108.224C152.358 108.309 152.144 108.651 151.846 109.248C151.59 109.803 151.312 110.485 151.014 111.296C150.758 112.107 150.523 112.875 150.31 113.6C150.011 115.051 149.798 116.459 149.67 117.824C149.542 119.189 149.52 120.384 149.606 121.408C149.734 122.389 149.99 123.093 150.374 123.52C150.758 123.904 151.334 123.904 152.102 123.52C152.912 123.093 153.659 122.603 154.342 122.048C155.11 121.408 155.771 121.216 156.326 121.472C156.88 121.685 157.222 122.155 157.35 122.88C157.52 123.563 157.328 124.309 156.774 125.12C156.262 125.931 155.536 126.613 154.598 127.168C153.659 127.723 152.699 128.107 151.718 128.32C150.736 128.576 149.883 128.597 149.158 128.384ZM169.577 100.224C169.15 100.267 168.617 100.267 167.977 100.224C167.38 100.181 167.017 99.776 166.889 99.008C166.846 98.7093 166.889 98.432 167.017 98.176C167.145 97.92 167.316 97.6427 167.529 97.344C168.041 96.4907 168.617 95.552 169.257 94.528C169.94 93.504 170.388 92.672 170.601 92.032C170.601 91.8613 170.622 91.712 170.665 91.584C169.94 91.712 169.193 91.456 168.425 90.816C167.614 90.048 167.38 89.0453 167.721 87.808C168.105 86.528 168.852 85.504 169.961 84.736C170.729 84.2667 171.454 84.0107 172.137 83.968C172.82 83.9253 173.545 84.0747 174.313 84.416C175.038 84.8427 175.636 85.504 176.105 86.4C176.574 87.2533 176.702 87.9573 176.489 88.512C176.361 89.4933 176.126 90.4107 175.785 91.264C175.486 92.1173 175.209 92.9493 174.953 93.76C174.697 94.6987 174.164 95.7013 173.353 96.768C172.585 97.792 171.838 98.7307 171.113 99.584C171.156 99.7547 171.028 99.8613 170.729 99.904C170.43 99.9467 170.046 100.053 169.577 100.224ZM172.917 128.384C171.466 127.787 170.4 127.168 169.717 126.528C169.077 125.845 168.821 125.248 168.949 124.736C169.034 124.48 169.184 124.245 169.397 124.032C169.61 123.819 170.08 123.733 170.805 123.776C171.573 123.776 172.746 123.968 174.325 124.352C174.794 124.352 175.264 124.331 175.733 124.288C176.202 124.245 176.629 124.181 177.013 124.096C177.44 124.011 177.781 123.904 178.037 123.776C178.25 123.691 178.314 123.584 178.229 123.456C178.144 123.285 177.994 123.115 177.781 122.944C177.61 122.731 177.418 122.603 177.205 122.56C176.992 122.475 176.8 122.432 176.629 122.432C176.544 122.219 176.352 122.005 176.053 121.792C175.797 121.579 175.477 121.344 175.093 121.088C174.154 120.32 173.301 119.637 172.533 119.04C171.765 118.443 171.466 117.995 171.637 117.696C171.637 117.525 171.637 117.44 171.637 117.44C171.637 117.397 171.637 117.376 171.637 117.376C171.338 117.376 171.061 116.971 170.805 116.16C170.549 115.307 170.421 114.539 170.421 113.856C170.421 113.003 170.592 112.149 170.933 111.296C171.317 110.443 171.786 109.632 172.341 108.864C172.938 108.096 173.536 107.413 174.133 106.816C174.944 106.048 175.797 105.301 176.693 104.576C177.632 103.808 178.634 103.125 179.701 102.528C180.81 101.931 182.026 101.461 183.349 101.12C183.946 100.992 184.629 100.928 185.397 100.928C186.165 100.928 186.72 101.035 187.061 101.248C187.402 101.035 187.829 101.099 188.341 101.44C188.853 101.739 189.365 102.165 189.877 102.72C190.389 103.275 190.773 103.829 191.029 104.384C191.029 104.896 191.008 105.536 190.965 106.304C190.965 107.029 190.922 107.669 190.837 108.224C190.752 108.779 190.56 109.056 190.261 109.056C190.261 109.056 190.197 109.077 190.069 109.12C189.984 109.12 189.941 109.227 189.941 109.44C189.941 109.867 189.621 110.357 188.981 110.912C188.17 111.467 187.402 111.915 186.677 112.256C185.952 112.597 185.397 112.619 185.013 112.32C184.757 112.149 184.522 111.979 184.309 111.808C184.096 111.637 183.904 111.424 183.733 111.168C183.733 111.168 183.669 111.083 183.541 110.912C183.456 110.699 183.413 110.507 183.413 110.336C183.413 110.165 183.477 110.016 183.605 109.888C183.733 109.717 183.797 109.632 183.797 109.632C184.394 109.077 184.842 108.565 185.141 108.096C185.482 107.627 185.717 107.221 185.845 106.88C185.973 106.496 186.037 106.197 186.037 105.984C186.037 105.728 185.973 105.579 185.845 105.536C185.76 105.451 185.546 105.408 185.205 105.408C184.992 105.408 184.522 105.579 183.797 105.92C183.114 106.261 182.389 106.688 181.621 107.2C180.853 107.669 180.256 108.096 179.829 108.48C179.658 108.779 179.53 108.971 179.445 109.056C179.402 109.141 179.296 109.184 179.125 109.184C179.125 109.013 179.018 109.035 178.805 109.248C178.592 109.461 178.336 109.76 178.037 110.144C177.738 110.528 177.44 110.933 177.141 111.36C176.842 111.787 176.608 112.128 176.437 112.384C176.394 112.768 176.288 113.131 176.117 113.472C175.989 113.771 175.946 114.091 175.989 114.432C176.032 114.859 176.245 115.264 176.629 115.648C177.013 116.032 177.568 116.523 178.293 117.12C179.786 118.229 180.896 119.104 181.621 119.744C182.389 120.384 182.922 120.896 183.221 121.28C183.52 121.664 183.712 122.048 183.797 122.432C184.522 123.755 184.608 124.907 184.053 125.888C183.498 126.827 182.645 127.552 181.493 128.064C181.066 128.277 180.32 128.469 179.253 128.64C178.186 128.853 177.056 128.939 175.861 128.896C174.709 128.896 173.728 128.725 172.917 128.384Z" fill="#03A9F4"/>
<path d="M20.53 207V162.31L11.1 165.59L7 156.16L22.17 149.6H35.29V207H20.53ZM45.9724 195.11C57.2338 195.93 65.1604 196.34 69.7524 196.34C71.0098 196.34 71.9938 195.985 72.7044 195.274C73.4698 194.509 73.8524 193.497 73.8524 192.24V184.86C68.5498 185.953 63.9031 186.5 59.9124 186.5H54.1724C50.4551 186.5 47.4758 185.379 45.2344 183.138C42.9931 180.897 41.8724 177.917 41.8724 174.2V163.54C41.8724 158.565 43.1298 154.875 45.6444 152.47C48.1591 150.01 52.0951 148.78 57.4524 148.78H73.0324C78.3898 148.78 82.3258 150.01 84.8404 152.47C87.3551 154.875 88.6124 158.565 88.6124 163.54V192.24C88.6124 197.597 87.3551 201.533 84.8404 204.048C82.3258 206.563 78.3898 207.82 73.0324 207.82C65.5431 207.82 56.5231 207.273 45.9724 206.18V195.11ZM64.0124 175.02C67.1284 175.02 70.4084 174.747 73.8524 174.2V165.18C73.8524 161.9 72.2124 160.26 68.9324 160.26H61.5524C58.2724 160.26 56.6324 161.9 56.6324 165.18V172.15C56.6324 172.97 56.9058 173.653 57.4524 174.2C57.9991 174.747 58.6824 175.02 59.5024 175.02H64.0124ZM114.023 184.04C110.743 184.04 109.103 185.68 109.103 188.96V192.24C109.103 193.497 109.458 194.509 110.169 195.274C110.934 195.985 111.945 196.34 113.203 196.34H125.503C126.76 196.34 127.744 195.985 128.455 195.274C129.22 194.509 129.603 193.497 129.603 192.24V188.96C129.603 185.68 127.963 184.04 124.683 184.04H114.023ZM115.663 160.26C112.383 160.26 110.743 161.9 110.743 165.18V167.64C110.743 170.92 112.383 172.56 115.663 172.56H123.043C126.323 172.56 127.963 170.92 127.963 167.64V165.18C127.963 161.9 126.323 160.26 123.043 160.26H115.663ZM144.363 192.24C144.363 197.597 143.105 201.533 140.591 204.048C138.076 206.563 134.14 207.82 128.783 207.82H109.923C104.565 207.82 100.629 206.563 98.1148 204.048C95.6001 201.533 94.3428 197.597 94.3428 192.24V191.42C94.3428 187.265 95.3815 183.821 97.4588 181.088C99.0988 178.901 101.34 177.425 104.183 176.66C101.723 175.84 99.7275 174.419 98.1968 172.396C96.7208 170.319 95.9828 167.64 95.9828 164.36V163.54C95.9828 158.565 97.2401 154.875 99.7548 152.47C102.269 150.01 106.205 148.78 111.563 148.78H127.143C132.5 148.78 136.436 150.01 138.951 152.47C141.465 154.875 142.723 158.565 142.723 163.54V164.36C142.723 167.64 141.957 170.319 140.427 172.396C138.951 174.419 136.983 175.84 134.523 176.66C138.951 177.863 141.957 180.815 143.543 185.516C144.089 187.211 144.363 189.179 144.363 191.42V192.24ZM176.336 163.54H192.326L179.206 185.27L192.736 207H176.746L169.366 193.88L161.986 207H145.996L159.526 185.27L146.406 163.54H162.396L169.366 176.66L176.336 163.54Z" fill="#FFC107"/>
</svg>
